<svg id="interface_essential_by_mad-lab_studio" data-name="interface essential by mad-lab studio" xmlns="http://www.w3.org/2000/svg" viewBox="0 0 24 24"><title>Arrange - Alphabet</title><path d="M9.29,19.29,8,20.59V1A1,1,0,0,0,6,1V20.59l-1.29-1.3a1,1,0,0,0-1.42,1.42l3,3a1,1,0,0,0,.33.21.94.94,0,0,0,.76,0,1,1,0,0,0,.33-.21l3-3a1,1,0,0,0-1.42-1.42Z"/><path d="M13.65,9.94a1,1,0,0,0,1.29-.59L15.44,8h3.12l.5,1.35A1,1,0,0,0,20,10a1,1,0,0,0,.35-.06,1,1,0,0,0,.59-1.29l-3-8a1,1,0,0,0-1.88,0l-3,8A1,1,0,0,0,13.65,9.94ZM17,3.85,17.81,6H16.19Z"/><path d="M20,22H16l1.5-2H19a1,1,0,0,0,0-2h0l1.8-2.4a1,1,0,0,0,.09-1A1,1,0,0,0,20,14H14a1,1,0,0,0,0,2h4l-1.5,2H15a1,1,0,0,0,0,2h0l-1.8,2.4a1,1,0,0,0-.09,1.05A1,1,0,0,0,14,24h6a1,1,0,0,0,0-2Z"/></svg>