<svg id="interface_essential_by_mad-lab_studio" data-name="interface essential by mad-lab studio" xmlns="http://www.w3.org/2000/svg" viewBox="0 0 24 24"><title>Arrange - number</title><path d="M9.29,19.29,8,20.59V1A1,1,0,0,0,6,1V20.59l-1.29-1.3a1,1,0,0,0-1.42,1.42l3,3a1,1,0,0,0,.33.21.94.94,0,0,0,.76,0,1,1,0,0,0,.33-.21l3-3a1,1,0,0,0-1.42-1.42Z"/><path d="M15,10h4a1,1,0,0,0,0-2H18V1a1,1,0,0,0-.62-.92,1,1,0,0,0-1.09.21l-1,1a1,1,0,0,0,0,1.42A1,1,0,0,0,16,3V8H15a1,1,0,0,0,0,2Z"/><path d="M18,14H16a3,3,0,0,0,0,6h3v1a1,1,0,0,1-1,1H14a1,1,0,0,0,0,2h4a3,3,0,0,0,3-3V17A3,3,0,0,0,18,14Zm1,4H16a1,1,0,0,1,0-2h2a1,1,0,0,1,1,1Z"/></svg>