<svg id="interface_essential_by_mad-lab_studio" data-name="interface essential by mad-lab studio" xmlns="http://www.w3.org/2000/svg" viewBox="0 0 24 24"><title>Arrow - return</title><path d="M23,21a1,1,0,0,1-.76-.35l-.79-.93A16.43,16.43,0,0,0,10,14v3a1,1,0,0,1-.57.9,1,1,0,0,1-1.06-.12l-8-6.5a1,1,0,0,1,0-1.56l8-6.5A1,1,0,0,1,9.43,3.1,1,1,0,0,1,10,4V7h1A13,13,0,0,1,24,20a1,1,0,0,1-.66.94A1,1,0,0,1,23,21ZM9,12a18.39,18.39,0,0,1,12.57,5A11,11,0,0,0,11,9H9A1,1,0,0,1,8,8V6.1L2.59,10.5,8,14.9V13A1,1,0,0,1,9,12Z"/></svg>