<svg id="interface_essential_by_mad-lab_studio" data-name="interface essential by mad-lab studio" xmlns="http://www.w3.org/2000/svg" viewBox="0 0 24 24"><title>Briefcase alt 2</title><path d="M21,4H18V3a3,3,0,0,0-3-3H9A3,3,0,0,0,6,3V4H3A3,3,0,0,0,0,7V21a3,3,0,0,0,3,3H21a3,3,0,0,0,3-3V7A3,3,0,0,0,21,4ZM8,3A1,1,0,0,1,9,2h6a1,1,0,0,1,1,1V4H8ZM2,7A1,1,0,0,1,3,6H21a1,1,0,0,1,1,1v3.36l-7.1,3.22A1,1,0,0,0,14,13H10a1,1,0,0,0-.9.58L2,10.36Zm11,8v2H11V15Zm8,7H3a1,1,0,0,1-1-1V12.55l7,3.18V18a1,1,0,0,0,1,1h4a1,1,0,0,0,1-1V15.73l7-3.18V21A1,1,0,0,1,21,22Z"/></svg>