<svg id="interface_essential_by_mad-lab_studio" data-name="interface essential by mad-lab studio" xmlns="http://www.w3.org/2000/svg" viewBox="0 0 24 24"><title>Browser</title><path d="M24,12A12,12,0,0,0,15.71.59h0a12,12,0,0,0-7.36,0h0a12,12,0,0,0,.08,22.85h.05a11.93,11.93,0,0,0,7.16,0h.05A12,12,0,0,0,24,12Zm-7,8.67A30.72,30.72,0,0,0,17.79,16h3.37A10.08,10.08,0,0,1,17,20.67ZM2,12a10.2,10.2,0,0,1,.2-2H6.06C6,10.66,6,11.33,6,12s0,1.34.06,2H2.2A10.2,10.2,0,0,1,2,12Zm6,0c0-.68,0-1.34.06-2h7.88c0,.66.06,1.32.06,2s0,1.34-.06,2H8.06C8,13.34,8,12.68,8,12Zm9.94-2H21.8a10.1,10.1,0,0,1,0,4H17.94c0-.66.06-1.33.06-2S18,10.66,17.94,10Zm3.22-2H17.79A30.72,30.72,0,0,0,17,3.33,10.08,10.08,0,0,1,21.16,8ZM14.55,2.34A24.26,24.26,0,0,1,15.78,8H8.22A24.26,24.26,0,0,1,9.45,2.34,10.25,10.25,0,0,1,12,2,10.25,10.25,0,0,1,14.55,2.34ZM7,3.33A30.72,30.72,0,0,0,6.21,8H2.84A10.08,10.08,0,0,1,7,3.33ZM2.84,16H6.21A30.72,30.72,0,0,0,7,20.67,10.08,10.08,0,0,1,2.84,16Zm6.61,5.66A24.26,24.26,0,0,1,8.22,16h7.56a24.26,24.26,0,0,1-1.23,5.66A10.25,10.25,0,0,1,12,22,10.25,10.25,0,0,1,9.45,21.66Z"/></svg>