<svg id="interface_essential_by_mad-lab_studio" data-name="interface essential by mad-lab studio" xmlns="http://www.w3.org/2000/svg" viewBox="0 0 24 24"><title>Calendar alt 1</title><path d="M22,10H2A1,1,0,0,1,1,9V6A3,3,0,0,1,4,3H20a3,3,0,0,1,3,3V9A1,1,0,0,1,22,10ZM3,8H21V6a1,1,0,0,0-1-1H4A1,1,0,0,0,3,6Z"/><path d="M20,23H4a3,3,0,0,1-3-3V9A1,1,0,0,1,2,8H22a1,1,0,0,1,1,1V20A3,3,0,0,1,20,23ZM3,10V20a1,1,0,0,0,1,1H20a1,1,0,0,0,1-1V10Z"/><path d="M7,7A1,1,0,0,1,6,6V2A1,1,0,0,1,8,2V6A1,1,0,0,1,7,7Z"/><path d="M17,7a1,1,0,0,1-1-1V2a1,1,0,0,1,2,0V6A1,1,0,0,1,17,7Z"/><circle cx="7" cy="13" r="1"/><circle cx="12" cy="13" r="1"/><circle cx="17" cy="13" r="1"/><circle cx="7" cy="18" r="1"/><circle cx="12" cy="18" r="1"/><circle cx="17" cy="18" r="1"/></svg>