<svg id="interface_essential_by_mad-lab_studio" data-name="interface essential by mad-lab studio" xmlns="http://www.w3.org/2000/svg" viewBox="0 0 24 24"><title>Calendar - block</title><path d="M22,9H2A1,1,0,0,1,1,8V5A3,3,0,0,1,4,2H20a3,3,0,0,1,3,3V8A1,1,0,0,1,22,9ZM3,7H21V5a1,1,0,0,0-1-1H4A1,1,0,0,0,3,5Z"/><path d="M14.81,22H4a3,3,0,0,1-3-3V8A1,1,0,0,1,2,7H22a1,1,0,0,1,1,1v5.66a1,1,0,0,1-2,0V9H3V19a1,1,0,0,0,1,1H14.81a1,1,0,1,1,0,2Z"/><path d="M7,6A1,1,0,0,1,6,5V1A1,1,0,0,1,8,1V5A1,1,0,0,1,7,6Z"/><path d="M17,6a1,1,0,0,1-1-1V1a1,1,0,0,1,2,0V5A1,1,0,0,1,17,6Z"/><circle cx="7" cy="12" r="1"/><circle cx="12" cy="12" r="1"/><circle cx="7" cy="17" r="1"/><path d="M18,23a6,6,0,1,1,6-6A6,6,0,0,1,18,23Zm0-10a4,4,0,1,0,4,4A4,4,0,0,0,18,13Z"/><path d="M14.46,21.54a1,1,0,0,1-.7-.3,1,1,0,0,1,0-1.41l7.07-7.07a1,1,0,0,1,1.41,1.41l-7.07,7.07A1,1,0,0,1,14.46,21.54Z"/></svg>