<svg id="interface_essential_by_mad-lab_studio" data-name="interface essential by mad-lab studio" xmlns="http://www.w3.org/2000/svg" viewBox="0 0 24 24"><title>Calendar alt 3</title><path d="M20,24H4a3,3,0,0,1-3-3V5A3,3,0,0,1,4,2H5A1,1,0,0,1,5,4H4A1,1,0,0,0,3,5V21a1,1,0,0,0,1,1H20a1,1,0,0,0,1-1V5a1,1,0,0,0-1-1H19a1,1,0,0,1,0-2h1a3,3,0,0,1,3,3V21A3,3,0,0,1,20,24Z"/><path d="M13,4H11a1,1,0,0,1,0-2h2a1,1,0,0,1,0,2Z"/><circle cx="7" cy="14" r="1"/><circle cx="12" cy="14" r="1"/><circle cx="17" cy="14" r="1"/><circle cx="7" cy="19" r="1"/><circle cx="12" cy="19" r="1"/><circle cx="17" cy="19" r="1"/><path d="M8,7A1,1,0,0,1,7,6V1A1,1,0,0,1,9,1V6A1,1,0,0,1,8,7Z"/><path d="M8,11a3,3,0,1,1,3-3A3,3,0,0,1,8,11ZM8,7A1,1,0,1,0,9,8,1,1,0,0,0,8,7Z"/><path d="M16,7a1,1,0,0,1-1-1V1a1,1,0,0,1,2,0V6A1,1,0,0,1,16,7Z"/><path d="M16,11a3,3,0,1,1,3-3A3,3,0,0,1,16,11Zm0-4a1,1,0,1,0,1,1A1,1,0,0,0,16,7Z"/></svg>