<svg id="interface_essential_by_mad-lab_studio" data-name="interface essential by mad-lab studio" xmlns="http://www.w3.org/2000/svg" viewBox="0 0 24 24"><title>Cloud download</title><path d="M20.92,9.11A5,5,0,0,0,16,5a4.75,4.75,0,0,0-1.79.34A7,7,0,0,0,2,9.54,4,4,0,0,0,4,17H8a1,1,0,0,0,0-2H4a2,2,0,0,1-.66-3.88A1,1,0,0,0,4,10.18,1.15,1.15,0,0,0,4,10a5,5,0,0,1,9.11-2.84,1,1,0,0,0,1.34.28A3,3,0,0,1,19,10a1,1,0,0,0,1,1,2,2,0,0,1,0,4H16a1,1,0,0,0,0,2h4a4,4,0,0,0,.92-7.89Z"/><path d="M13.29,17.29l-.29.3V12a1,1,0,0,0-2,0v5.59l-.29-.3a1,1,0,0,0-1.42,1.42l2,2a1,1,0,0,0,.33.21.94.94,0,0,0,.76,0,1,1,0,0,0,.33-.21l2-2a1,1,0,0,0-1.42-1.42Z"/></svg>