<svg id="interface_essential_by_mad-lab_studio" data-name="interface essential by mad-lab studio" xmlns="http://www.w3.org/2000/svg" viewBox="0 0 24 24"><title>Collection</title><path d="M20,1H9A3,3,0,0,0,6,4V6H4A3,3,0,0,0,1,9V20a3,3,0,0,0,3,3H15a3,3,0,0,0,3-3V18h2a3,3,0,0,0,3-3V4A3,3,0,0,0,20,1ZM16,20a1,1,0,0,1-1,1H4a1,1,0,0,1-1-1V9A1,1,0,0,1,4,8H15a1,1,0,0,1,1,1Zm5-5a1,1,0,0,1-1,1H18V9a3,3,0,0,0-3-3H8V4A1,1,0,0,1,9,3H20a1,1,0,0,1,1,1Z"/><path d="M7,9H6a2,2,0,0,0-2,2v1a2,2,0,0,0,2,2H7a2,2,0,0,0,2-2V11A2,2,0,0,0,7,9ZM6,12V11H7v1Z"/><path d="M13,9H12a2,2,0,0,0-2,2v1a2,2,0,0,0,2,2h1a2,2,0,0,0,2-2V11A2,2,0,0,0,13,9Zm-1,3V11h1v1Z"/><path d="M7,15H6a2,2,0,0,0-2,2v1a2,2,0,0,0,2,2H7a2,2,0,0,0,2-2V17A2,2,0,0,0,7,15ZM6,18V17H7v1Z"/><path d="M13,15H12a2,2,0,0,0-2,2v1a2,2,0,0,0,2,2h1a2,2,0,0,0,2-2V17A2,2,0,0,0,13,15Zm-1,3V17h1v1Z"/></svg>