<svg id="interface_essential_by_mad-lab_studio" data-name="interface essential by mad-lab studio" xmlns="http://www.w3.org/2000/svg" viewBox="0 0 24 24"><title>Copy alt 2</title><path d="M16,23H3a1,1,0,0,1-1-1V6A1,1,0,0,1,3,5h8a1,1,0,0,1,.71.29l5,5A1,1,0,0,1,17,11V22A1,1,0,0,1,16,23ZM4,21H15V11.41L10.59,7H4Z"/><path d="M21,18H16a1,1,0,0,1,0-2h4V6a1,1,0,0,1,2,0V17A1,1,0,0,1,21,18Z"/><path d="M8,7A1,1,0,0,1,7,6V1A1,1,0,0,1,8,0h8a1,1,0,0,1,0,2H9V6A1,1,0,0,1,8,7Z"/><path d="M16,12H11a1,1,0,0,1-1-1V6a1,1,0,0,1,.62-.92,1,1,0,0,1,1.09.21l5,5a1,1,0,0,1,.21,1.09A1,1,0,0,1,16,12Zm-4-2h1.59L12,8.41Z"/><path d="M21,7H16a1,1,0,0,1-1-1V1a1,1,0,0,1,.62-.92,1,1,0,0,1,1.09.21l5,5a1,1,0,0,1,.21,1.09A1,1,0,0,1,21,7ZM17,5h1.59L17,3.41Z"/></svg>