<svg id="interface_essential_by_mad-lab_studio" data-name="interface essential by mad-lab studio" xmlns="http://www.w3.org/2000/svg" viewBox="0 0 24 24"><title>Cut alt 1</title><path d="M6,24a4,4,0,1,1,4-4A4,4,0,0,1,6,24Zm0-6a2,2,0,1,0,2,2A2,2,0,0,0,6,18Z"/><path d="M9,21a1,1,0,0,1-.43-.1,1,1,0,0,1-.47-1.33l9-19a1,1,0,1,1,1.8.86l-9,19A1,1,0,0,1,9,21Z"/><path d="M18,24a4,4,0,1,1,4-4A4,4,0,0,1,18,24Zm0-6a2,2,0,1,0,2,2A2,2,0,0,0,18,18Z"/><path d="M15,21a1,1,0,0,1-.9-.57l-9-19A1,1,0,0,1,6.9.57l9,19a1,1,0,0,1-.47,1.33A1,1,0,0,1,15,21Z"/></svg>