<svg id="interface_essential_by_mad-lab_studio" data-name="interface essential by mad-lab studio" xmlns="http://www.w3.org/2000/svg" viewBox="0 0 24 24"><title>dashboard alt 2</title><path d="M21,21H3a3,3,0,0,1-3-3V6A3,3,0,0,1,3,3H21a3,3,0,0,1,3,3V18A3,3,0,0,1,21,21ZM3,5A1,1,0,0,0,2,6V18a1,1,0,0,0,1,1H21a1,1,0,0,0,1-1V6a1,1,0,0,0-1-1Z"/><path d="M15,17a5,5,0,1,1,5-5A5,5,0,0,1,15,17Zm0-8a3,3,0,1,0,3,3A3,3,0,0,0,15,9Z"/><path d="M12.17,15.83a1,1,0,0,1-.71-.29,1,1,0,0,1,0-1.42L14,11.59V8a1,1,0,0,1,2,0v4a1,1,0,0,1-.29.71l-2.83,2.83A1,1,0,0,1,12.17,15.83Z"/><path d="M6,9H5A1,1,0,0,1,5,7H6A1,1,0,0,1,6,9Z"/><path d="M7,13H5a1,1,0,0,1,0-2H7a1,1,0,0,1,0,2Z"/><path d="M8,17H5a1,1,0,0,1,0-2H8a1,1,0,0,1,0,2Z"/></svg>