<svg id="interface_essential_by_mad-lab_studio" data-name="interface essential by mad-lab studio" xmlns="http://www.w3.org/2000/svg" viewBox="0 0 24 24"><title>Delete alt 2</title><path d="M19,23H5a1,1,0,0,1-1-1V5A1,1,0,0,1,5,4H19a1,1,0,0,1,1,1V22A1,1,0,0,1,19,23ZM6,21H18V6H6Z"/><path d="M21,6H3A1,1,0,0,1,3,4H21a1,1,0,0,1,0,2Z"/><path d="M15,6H9A1,1,0,0,1,8,5V4a3,3,0,0,1,3-3h2a3,3,0,0,1,3,3V5A1,1,0,0,1,15,6ZM10,4h4a1,1,0,0,0-1-1H11A1,1,0,0,0,10,4Z"/><path d="M10,19a1,1,0,0,1-1-1V9a1,1,0,0,1,2,0v9A1,1,0,0,1,10,19Z"/><path d="M14,19a1,1,0,0,1-1-1V9a1,1,0,0,1,2,0v9A1,1,0,0,1,14,19Z"/></svg>