<svg id="interface_essential_by_mad-lab_studio" data-name="interface essential by mad-lab studio" xmlns="http://www.w3.org/2000/svg" viewBox="0 0 24 24"><title>Delete alt 4</title><path d="M20,9H4A3,3,0,0,1,1,6V5A3,3,0,0,1,4,2H7.88a.81.81,0,0,0,.73-.45A2.77,2.77,0,0,1,11.12,0h1.76a2.77,2.77,0,0,1,2.51,1.55.81.81,0,0,0,.73.45H20a3,3,0,0,1,3,3V6A3,3,0,0,1,20,9ZM4,4A1,1,0,0,0,3,5V6A1,1,0,0,0,4,7H20a1,1,0,0,0,1-1V5a1,1,0,0,0-1-1H16.12a2.77,2.77,0,0,1-2.51-1.55A.81.81,0,0,0,12.88,2H11.12a.81.81,0,0,0-.73.45A2.77,2.77,0,0,1,7.88,4Z"/><path d="M17,24H7a3,3,0,0,1-3-3V8A1,1,0,0,1,5,7H19a1,1,0,0,1,1,1V21A3,3,0,0,1,17,24ZM6,9V21a1,1,0,0,0,1,1H17a1,1,0,0,0,1-1V9Z"/><path d="M10,20a1,1,0,0,1-1-1V12a1,1,0,0,1,2,0v7A1,1,0,0,1,10,20Z"/><path d="M14,20a1,1,0,0,1-1-1V12a1,1,0,0,1,2,0v7A1,1,0,0,1,14,20Z"/></svg>