<svg id="interface_essential_by_mad-lab_studio" data-name="interface essential by mad-lab studio" xmlns="http://www.w3.org/2000/svg" viewBox="0 0 24 24"><title>Delete alt 3</title><path d="M15,5H9A1,1,0,0,1,8,4V3a3,3,0,0,1,3-3h2a3,3,0,0,1,3,3V4A1,1,0,0,1,15,5ZM10,3h4a1,1,0,0,0-1-1H11A1,1,0,0,0,10,3Z"/><path d="M20,9H4A2,2,0,0,1,2,7V5A2,2,0,0,1,4,3H20a2,2,0,0,1,2,2V7A2,2,0,0,1,20,9ZM4,5V7H20V5Z"/><path d="M17,24H7a3,3,0,0,1-3-3V8A1,1,0,0,1,5,7H19a1,1,0,0,1,1,1V21A3,3,0,0,1,17,24ZM6,9V21a1,1,0,0,0,1,1H17a1,1,0,0,0,1-1V9Z"/><path d="M15,24H9a1,1,0,0,1-1-1V8A1,1,0,0,1,9,7h6a1,1,0,0,1,1,1V23A1,1,0,0,1,15,24Zm-5-2h4V9H10Z"/></svg>