<svg id="interface_essential_by_mad-lab_studio" data-name="interface essential by mad-lab studio" xmlns="http://www.w3.org/2000/svg" viewBox="0 0 24 24"><title>Delete alt 1</title><path d="M19,24H5a1,1,0,0,1-1-.93l-1-15a1,1,0,0,1,.27-.75A1,1,0,0,1,4,7H20a1,1,0,0,1,.73.32,1,1,0,0,1,.27.75l-1,15A1,1,0,0,1,19,24ZM5.94,22H18.06l.87-13H5.07Z"/><path d="M21,6H3A1,1,0,0,1,3,4H21a1,1,0,0,1,0,2Z"/><path d="M15,6H9A1,1,0,0,1,8,5V3a3,3,0,0,1,3-3h2a3,3,0,0,1,3,3V5A1,1,0,0,1,15,6ZM10,4h4V3a1,1,0,0,0-1-1H11a1,1,0,0,0-1,1Z"/><path d="M8,18a1,1,0,0,1-1-1V13a1,1,0,0,1,2,0v4A1,1,0,0,1,8,18Z"/><path d="M12,18a1,1,0,0,1-1-1V13a1,1,0,0,1,2,0v4A1,1,0,0,1,12,18Z"/><path d="M16,18a1,1,0,0,1-1-1V13a1,1,0,0,1,2,0v4A1,1,0,0,1,16,18Z"/></svg>