<svg id="interface_essential_by_mad-lab_studio" data-name="interface essential by mad-lab studio" xmlns="http://www.w3.org/2000/svg" viewBox="0 0 24 24"><title>Download alt 2</title><path d="M23,5.94a1.09,1.09,0,0,0,0-.26.36.36,0,0,0,0-.09,1.17,1.17,0,0,0-.19-.3l-5-5a1.17,1.17,0,0,0-.3-.19l-.09,0a1.09,1.09,0,0,0-.26,0H4A3,3,0,0,0,1,3V21a3,3,0,0,0,3,3H20a3,3,0,0,0,3-3V6S23,6,23,5.94ZM19.59,5H19a1,1,0,0,1-1-1V3.41ZM20,22H4a1,1,0,0,1-1-1V3A1,1,0,0,1,4,2H16V4a3,3,0,0,0,3,3h2V21A1,1,0,0,1,20,22Z"/><path d="M14.29,14.29,13,15.59V6a1,1,0,0,0-2,0v9.59l-1.29-1.3a1,1,0,0,0-1.42,1.42l3,3a1,1,0,0,0,.33.21.94.94,0,0,0,.76,0,1,1,0,0,0,.33-.21l3-3a1,1,0,0,0-1.42-1.42Z"/></svg>