<svg id="interface_essential_by_mad-lab_studio" data-name="interface essential by mad-lab studio" xmlns="http://www.w3.org/2000/svg" viewBox="0 0 24 24"><title>Edit alt 3</title><path d="M13,23H3a3,3,0,0,1-3-3V4A3,3,0,0,1,3,1H13a3,3,0,0,1,3,3V20A3,3,0,0,1,13,23ZM3,3A1,1,0,0,0,2,4V20a1,1,0,0,0,1,1H13a1,1,0,0,0,1-1V4a1,1,0,0,0-1-1Z"/><path d="M11,19a1,1,0,0,1-.71-.29,1,1,0,0,1,0-1.42l12-12a1,1,0,1,1,1.42,1.42l-12,12A1,1,0,0,1,11,19Z"/><path d="M12,7H4A1,1,0,0,1,4,5h8a1,1,0,0,1,0,2Z"/><path d="M12,11H4A1,1,0,0,1,4,9h8a1,1,0,0,1,0,2Z"/><path d="M12,15H4a1,1,0,0,1,0-2h8a1,1,0,0,1,0,2Z"/><path d="M11,19H4a1,1,0,0,1,0-2h7a1,1,0,0,1,0,2Z"/></svg>