<svg id="interface_essential_by_mad-lab_studio" data-name="interface essential by mad-lab studio" xmlns="http://www.w3.org/2000/svg" viewBox="0 0 24 24"><title>Eraser alt 1</title><path d="M23,22H12.41L22.65,11.77a4.64,4.64,0,0,0,0-6.54L18.77,1.35a4.64,4.64,0,0,0-6.54,0L1.71,11.88a5.82,5.82,0,0,0,0,8.24l3.58,3.59a1,1,0,0,0,.32.21A1.09,1.09,0,0,0,6,24H23a1,1,0,0,0,0-2ZM13.65,2.77a2.7,2.7,0,0,1,3.7,0l3.88,3.88a2.61,2.61,0,0,1,0,3.7L13,18.59,5.41,11ZM6.41,22,3.12,18.71a3.84,3.84,0,0,1,0-5.42L4,12.41,11.59,20l-2,2Z"/></svg>