<svg id="interface_essential_by_mad-lab_studio" data-name="interface essential by mad-lab studio" xmlns="http://www.w3.org/2000/svg" viewBox="0 0 24 24"><title>Face ID male</title><path d="M12,20a7,7,0,0,1-7-7V6A1,1,0,0,1,7,6v7a5,5,0,0,0,10,0V6a1,1,0,0,1,2,0v7A7,7,0,0,1,12,20Z"/><path d="M3,9A1,1,0,0,1,2,8V6A6,6,0,0,1,8,0H21a1,1,0,0,1,1,1,6,6,0,0,1-6,6H6A1,1,0,0,1,6,5H16a4,4,0,0,0,3.87-3H8A4,4,0,0,0,4,6V8A1,1,0,0,1,3,9Z"/><path d="M6,14H3.5a3.5,3.5,0,0,1,0-7H6A1,1,0,0,1,7,8v5A1,1,0,0,1,6,14ZM3.5,9a1.5,1.5,0,0,0,0,3H5V9Z"/><path d="M20.5,14H18a1,1,0,0,1-1-1V8a1,1,0,0,1,1-1h2.5a3.5,3.5,0,0,1,0,7ZM19,12h1.5a1.5,1.5,0,0,0,0-3H19Z"/><path d="M12,24a6,6,0,0,1-6-6V16.32a1,1,0,0,1,2,0V18a4,4,0,0,0,8,0V16.32a1,1,0,0,1,2,0V18A6,6,0,0,1,12,24Z"/><circle cx="10" cy="10" r="1"/><circle cx="14" cy="10" r="1"/><path d="M21,9.05a1,1,0,0,1-1-1V1a1,1,0,0,1,2,0V8.05A1,1,0,0,1,21,9.05Z"/><path d="M12,17a3,3,0,0,1-3-3,1,1,0,0,1,2,0,1,1,0,0,0,2,0,1,1,0,0,1,2,0A3,3,0,0,1,12,17Z"/></svg>