<svg id="interface_essential_by_mad-lab_studio" data-name="interface essential by mad-lab studio" xmlns="http://www.w3.org/2000/svg" viewBox="0 0 24 24"><title>Flip horizontal</title><path d="M23,18a1,1,0,0,1-.58-.19l-7-5a1,1,0,0,1,0-1.62l7-5A1,1,0,0,1,24,7V17a1,1,0,0,1-.54.89A1.07,1.07,0,0,1,23,18Zm-5.28-6L22,15.06V8.94Z"/><path d="M1,18a1.07,1.07,0,0,1-.46-.11A1,1,0,0,1,0,17V7a1,1,0,0,1,1.58-.81l7,5a1,1,0,0,1,0,1.62l-7,5A1,1,0,0,1,1,18ZM2,8.94v6.12L6.28,12Z"/><path d="M12,23a1,1,0,0,1-1-1V2a1,1,0,0,1,2,0V22A1,1,0,0,1,12,23Z"/></svg>