<svg id="interface_essential_by_mad-lab_studio" data-name="interface essential by mad-lab studio" xmlns="http://www.w3.org/2000/svg" viewBox="0 0 24 24"><title>Hand</title><path d="M21,9a2.94,2.94,0,0,0-1.47.4A3,3,0,0,0,17,8a2.94,2.94,0,0,0-1.47.4A3,3,0,0,0,12,7.18V3A3,3,0,0,0,6,3v9.59l-.67-.68A3.09,3.09,0,0,0,3.12,11,3.12,3.12,0,0,0,0,14.12,5.54,5.54,0,0,0,1.62,18l3.56,3.55.93,1.86A1,1,0,0,0,7,24a.93.93,0,0,0,.45-.11,1,1,0,0,0,.44-1.34l-1-2a1.1,1.1,0,0,0-.18-.26L3,16.62a3.5,3.5,0,0,1-1-2.5,1.12,1.12,0,0,1,1.91-.79l2.38,2.38a1,1,0,0,0,1.09.21A1,1,0,0,0,8,15V3a1,1,0,0,1,2,0V14a1,1,0,0,0,2,0V10a1,1,0,0,1,2,0v4a1,1,0,0,0,2,0V11a1,1,0,0,1,2,0v3a1,1,0,0,0,2,0V12a1,1,0,0,1,2,0v6.17a5.79,5.79,0,0,1-1.71,4.12,1,1,0,0,0,0,1.42,1,1,0,0,0,1.42,0A7.78,7.78,0,0,0,24,18.17V12A3,3,0,0,0,21,9Z"/></svg>