<svg id="interface_essential_by_mad-lab_studio" data-name="interface essential by mad-lab studio" xmlns="http://www.w3.org/2000/svg" viewBox="0 0 24 24"><title>Hashtag</title><path d="M23,8H19l2-5.67a1,1,0,1,0-1.88-.66L16.84,8H10l2-5.67a1,1,0,0,0-1.88-.66L7.84,8H3a1,1,0,0,0,0,2H7.14l-1.4,4H1a1,1,0,0,0,0,2H5l-2,5.67a1,1,0,0,0,.61,1.27A1,1,0,0,0,4,23a1,1,0,0,0,.94-.67L7.16,16H14l-2,5.67a1,1,0,0,0,.61,1.27A1,1,0,0,0,13,23a1,1,0,0,0,.94-.67L16.16,16H21a1,1,0,0,0,0-2H16.86l1.4-4H23a1,1,0,0,0,0-2Zm-8.26,6H7.86l1.4-4h6.88Z"/></svg>