<svg id="interface_essential_by_mad-lab_studio" data-name="interface essential by mad-lab studio" xmlns="http://www.w3.org/2000/svg" viewBox="0 0 24 24"><title>Help alt 3</title><circle cx="12" cy="16" r="1"/><path d="M12,14a1,1,0,0,1-1-1V11a1,1,0,0,1,1-1,2,2,0,1,0-2-2A1,1,0,0,1,8,8a4,4,0,1,1,5,3.87V13A1,1,0,0,1,12,14Z"/><path d="M12,24a1,1,0,0,1-.87-.5l-2.29-4a10,10,0,1,1,6.32,0l-2.29,4A1,1,0,0,1,12,24ZM12,2A8,8,0,0,0,9.79,17.68a1,1,0,0,1,.59.47L12,21l1.62-2.83a1,1,0,0,1,.59-.47A8,8,0,0,0,12,2Z"/></svg>