<svg id="interface_essential_by_mad-lab_studio" data-name="interface essential by mad-lab studio" xmlns="http://www.w3.org/2000/svg" viewBox="0 0 24 24"><title>Help alt 4</title><circle cx="10" cy="16" r="1"/><path d="M10,14a1,1,0,0,1-1-1V11a1,1,0,0,1,1-1A2,2,0,1,0,8,8,1,1,0,0,1,6,8a4,4,0,1,1,5,3.87V13A1,1,0,0,1,10,14Z"/><path d="M10,20H1a1,1,0,0,1-1-1V10A10,10,0,1,1,10,20ZM2,18h8a8,8,0,1,0-8-8Z"/><path d="M23,24H14a10,10,0,0,1-8.32-4.44A1,1,0,0,1,6,18.17a1,1,0,0,1,1.39.27A8,8,0,0,0,14,22h8V14A8,8,0,0,0,17.6,6.86a1,1,0,1,1,.9-1.79A10,10,0,0,1,24,14v9A1,1,0,0,1,23,24Z"/></svg>