<svg id="interface_essential_by_mad-lab_studio" data-name="interface essential by mad-lab studio" xmlns="http://www.w3.org/2000/svg" viewBox="0 0 24 24"><title>Help alt 2</title><path d="M12,15a1,1,0,0,1-1-1V12a1,1,0,0,1,1-1A3,3,0,1,0,9,8,1,1,0,0,1,7,8a5,5,0,1,1,6,4.9V14A1,1,0,0,1,12,15Z"/><circle cx="12" cy="17" r="1"/><path d="M12,24a1,1,0,0,1-.71-.29L8.59,21H4.5a3,3,0,0,1-3-3V3a3,3,0,0,1,3-3h15a3,3,0,0,1,3,3V18a3,3,0,0,1-3,3H15.41l-2.7,2.71A1,1,0,0,1,12,24ZM4.5,2a1,1,0,0,0-1,1V18a1,1,0,0,0,1,1H9a1,1,0,0,1,.71.29L12,21.59l2.29-2.3A1,1,0,0,1,15,19h4.5a1,1,0,0,0,1-1V3a1,1,0,0,0-1-1Z"/></svg>