<svg id="interface_essential_by_mad-lab_studio" data-name="interface essential by mad-lab studio" xmlns="http://www.w3.org/2000/svg" viewBox="0 0 24 24"><title>home alt 3</title><path d="M23,15a1,1,0,0,1-.71-.29L12,4.41,1.71,14.71A1,1,0,0,1,.29,13.29l11-11a1,1,0,0,1,1.42,0l11,11a1,1,0,0,1,0,1.42A1,1,0,0,1,23,15Z"/><path d="M18,22H6a3,3,0,0,1-3-3V11a1,1,0,0,1,2,0v8a1,1,0,0,0,1,1H18a1,1,0,0,0,1-1V11a1,1,0,0,1,2,0v8A3,3,0,0,1,18,22Z"/><path d="M14,22H10a1,1,0,0,1-1-1V17a3,3,0,0,1,6,0v4A1,1,0,0,1,14,22Zm-3-2h2V17a1,1,0,0,0-2,0Z"/><path d="M20,12a1,1,0,0,1-1-1V4H17V7a1,1,0,0,1-2,0V3a1,1,0,0,1,1-1h4a1,1,0,0,1,1,1v8A1,1,0,0,1,20,12Z"/></svg>