<svg id="interface_essential_by_mad-lab_studio" data-name="interface essential by mad-lab studio" xmlns="http://www.w3.org/2000/svg" viewBox="0 0 24 24"><title>home alt 2</title><path d="M23,15a1,1,0,0,1-.71-.29L12,4.41,1.71,14.71A1,1,0,0,1,.29,13.29l11-11a1,1,0,0,1,1.42,0l11,11a1,1,0,0,1,0,1.42A1,1,0,0,1,23,15Z"/><path d="M16.36,22H7.64A3,3,0,0,1,4.7,19.59L3,11.2a1,1,0,0,1,2-.4l1.68,8.4a1,1,0,0,0,1,.8h8.72a1,1,0,0,0,1-.8L19,10.8a1,1,0,0,1,2,.4L19.3,19.59A3,3,0,0,1,16.36,22Z"/><path d="M14,22H10a1,1,0,0,1-1-1V17a3,3,0,0,1,6,0v4A1,1,0,0,1,14,22Zm-3-2h2V17a1,1,0,0,0-2,0Z"/></svg>