<svg id="interface_essential_by_mad-lab_studio" data-name="interface essential by mad-lab studio" xmlns="http://www.w3.org/2000/svg" viewBox="0 0 24 24"><title>image alt 2</title><circle cx="12" cy="7" r="1"/><path d="M21,5H20V4a3,3,0,0,0-3-3H3A3,3,0,0,0,0,4V16a3,3,0,0,0,3,3H4v1a3,3,0,0,0,3,3H21a3,3,0,0,0,3-3V8A3,3,0,0,0,21,5ZM3,3H17a1,1,0,0,1,1,1v8.59l-3.29-3.3a1,1,0,0,0-1.42,0L11,11.59,7.71,8.29a1,1,0,0,0-1.42,0L2,12.59V4A1,1,0,0,1,3,3ZM2,16v-.59l5-5,3.29,3.3a1,1,0,0,0,1.42,0L14,11.41l4,4V16a1,1,0,0,1-1,1H3A1,1,0,0,1,2,16Zm20,4a1,1,0,0,1-1,1H7a1,1,0,0,1-1-1V19H17a3,3,0,0,0,3-3V7h1a1,1,0,0,1,1,1Z"/></svg>