<svg id="interface_essential_by_mad-lab_studio" data-name="interface essential by mad-lab studio" xmlns="http://www.w3.org/2000/svg" viewBox="0 0 24 24"><title>Layout alt 2</title><path d="M21,7H3A3,3,0,0,1,0,4V3A3,3,0,0,1,3,0H21a3,3,0,0,1,3,3V4A3,3,0,0,1,21,7ZM3,2A1,1,0,0,0,2,3V4A1,1,0,0,0,3,5H21a1,1,0,0,0,1-1V3a1,1,0,0,0-1-1Z"/><path d="M5,24H3a3,3,0,0,1-3-3V12A3,3,0,0,1,3,9H5a3,3,0,0,1,3,3v9A3,3,0,0,1,5,24ZM3,11a1,1,0,0,0-1,1v9a1,1,0,0,0,1,1H5a1,1,0,0,0,1-1V12a1,1,0,0,0-1-1Z"/><path d="M21,24H13a3,3,0,0,1-3-3V12a3,3,0,0,1,3-3h8a3,3,0,0,1,3,3v9A3,3,0,0,1,21,24ZM13,11a1,1,0,0,0-1,1v9a1,1,0,0,0,1,1h8a1,1,0,0,0,1-1V12a1,1,0,0,0-1-1Z"/></svg>