<svg id="interface_essential_by_mad-lab_studio" data-name="interface essential by mad-lab studio" xmlns="http://www.w3.org/2000/svg" viewBox="0 0 24 24"><title>Layout alt 3</title><path d="M21,7H3A3,3,0,0,1,0,4V3A3,3,0,0,1,3,0H21a3,3,0,0,1,3,3V4A3,3,0,0,1,21,7ZM3,2A1,1,0,0,0,2,3V4A1,1,0,0,0,3,5H21a1,1,0,0,0,1-1V3a1,1,0,0,0-1-1Z"/><path d="M21,24H17.48a3,3,0,0,1-2.87-2.12l-2.77-9A3,3,0,0,1,14.71,9H21a3,3,0,0,1,3,3v9A3,3,0,0,1,21,24ZM14.71,11a1,1,0,0,0-.81.41,1,1,0,0,0-.15.88l2.77,9a1,1,0,0,0,1,.71H21a1,1,0,0,0,1-1V12a1,1,0,0,0-1-1Z"/><path d="M9.29,24H3a3,3,0,0,1-3-3V12A3,3,0,0,1,3,9H6.52a3,3,0,0,1,2.87,2.12l2.77,9A3,3,0,0,1,9.29,24ZM3,11a1,1,0,0,0-1,1v9a1,1,0,0,0,1,1H9.29a1,1,0,0,0,.81-.41,1,1,0,0,0,.15-.88l-2.77-9a1,1,0,0,0-1-.71Z"/></svg>