<svg id="interface_essential_by_mad-lab_studio" data-name="interface essential by mad-lab studio" xmlns="http://www.w3.org/2000/svg" viewBox="0 0 24 24"><title>Layout alt 1</title><path d="M8,11H3A3,3,0,0,1,0,8V3A3,3,0,0,1,3,0H8a3,3,0,0,1,3,3V8A3,3,0,0,1,8,11ZM3,2A1,1,0,0,0,2,3V8A1,1,0,0,0,3,9H8A1,1,0,0,0,9,8V3A1,1,0,0,0,8,2Z"/><path d="M21,11H16a3,3,0,0,1-3-3V3a3,3,0,0,1,3-3h5a3,3,0,0,1,3,3V8A3,3,0,0,1,21,11ZM16,2a1,1,0,0,0-1,1V8a1,1,0,0,0,1,1h5a1,1,0,0,0,1-1V3a1,1,0,0,0-1-1Z"/><path d="M8,24H3a3,3,0,0,1-3-3V16a3,3,0,0,1,3-3H8a3,3,0,0,1,3,3v5A3,3,0,0,1,8,24ZM3,15a1,1,0,0,0-1,1v5a1,1,0,0,0,1,1H8a1,1,0,0,0,1-1V16a1,1,0,0,0-1-1Z"/><path d="M21,24H16a3,3,0,0,1-3-3V16a3,3,0,0,1,3-3h5a3,3,0,0,1,3,3v5A3,3,0,0,1,21,24Zm-5-9a1,1,0,0,0-1,1v5a1,1,0,0,0,1,1h5a1,1,0,0,0,1-1V16a1,1,0,0,0-1-1Z"/></svg>