<svg id="interface_essential_by_mad-lab_studio" data-name="interface essential by mad-lab studio" xmlns="http://www.w3.org/2000/svg" viewBox="0 0 24 24"><title>Link alt 1</title><path d="M6.7,22.3a5,5,0,0,1-3.54-8.53L6.7,10.23a1,1,0,0,1,1.41,0,1,1,0,0,1,0,1.42L4.58,15.18a3,3,0,0,0,4.24,4.24l3.53-3.53a3,3,0,0,0,0-4.24,1,1,0,0,1,1.42-1.42,5,5,0,0,1,0,7.07l-3.54,3.54A5,5,0,0,1,6.7,22.3Z"/><path d="M10.94,14.06a1,1,0,0,1-.71-.29,5,5,0,0,1,0-7.07l3.54-3.54a5,5,0,0,1,7.07,7.07L17.3,13.77a1,1,0,0,1-1.41,0,1,1,0,0,1,0-1.42l3.53-3.53a3,3,0,0,0-4.24-4.24L11.65,8.11a3,3,0,0,0,0,4.24,1,1,0,0,1,0,1.42A1,1,0,0,1,10.94,14.06Z"/></svg>