<svg id="interface_essential_by_mad-lab_studio" data-name="interface essential by mad-lab studio" xmlns="http://www.w3.org/2000/svg" viewBox="0 0 24 24"><title>Link alt 2</title><path d="M6.7,23.13a3,3,0,0,1-2.12-.88L1.75,19.42a3,3,0,0,1,0-4.24l3.89-3.89a1,1,0,0,1,1.41,0,1,1,0,0,1,0,1.42L3.16,16.6a1,1,0,0,0,0,1.41L6,20.84a1,1,0,0,0,1.41,0l6.37-6.37a1,1,0,0,0,.29-.7,1,1,0,0,0-.29-.71l-1.42-1.41a1,1,0,0,1,1.42-1.42l1.41,1.42a3,3,0,0,1,0,4.24L8.82,22.25A3,3,0,0,1,6.7,23.13Z"/><path d="M10.94,14.06a1,1,0,0,1-.71-.29L8.82,12.35a3,3,0,0,1,0-4.24l6.36-6.36a3,3,0,0,1,4.24,0l2.83,2.83a3,3,0,0,1,0,4.24l-3.89,3.89a1,1,0,0,1-1.41,0,1,1,0,0,1,0-1.42L20.84,7.4a1,1,0,0,0,0-1.41L18,3.16a1,1,0,0,0-1.41,0L10.23,9.53a1,1,0,0,0-.29.7,1,1,0,0,0,.29.71l1.42,1.41a1,1,0,0,1,0,1.42A1,1,0,0,1,10.94,14.06Z"/></svg>