<svg id="interface_essential_by_mad-lab_studio" data-name="interface essential by mad-lab studio" xmlns="http://www.w3.org/2000/svg" viewBox="0 0 24 24"><title>List bullets</title><path d="M3,8A2,2,0,1,1,5,6,2,2,0,0,1,3,8ZM3,6H3ZM3,6H3ZM3,6H3ZM3,6H3ZM3,6H3ZM3,6H3ZM3,6H3ZM3,6H3Z"/><path d="M22,7H8A1,1,0,0,1,8,5H22a1,1,0,0,1,0,2Z"/><path d="M3,14a2,2,0,1,1,2-2A2,2,0,0,1,3,14Zm0-2H3Zm0,0H3Zm0,0H3Zm0,0H3Zm0,0H3Zm0,0H3Zm0,0H3Zm0,0H3Z"/><path d="M22,13H8a1,1,0,0,1,0-2H22a1,1,0,0,1,0,2Z"/><path d="M3,20a2,2,0,1,1,2-2A2,2,0,0,1,3,20Zm0-2H3Zm0,0H3Zm0,0H3Zm0,0H3Zm0,0H3Zm0,0H3Zm0,0H3Zm0,0H3Z"/><path d="M22,19H8a1,1,0,0,1,0-2H22a1,1,0,0,1,0,2Z"/></svg>