<svg id="interface_essential_by_mad-lab_studio" data-name="interface essential by mad-lab studio" xmlns="http://www.w3.org/2000/svg" viewBox="0 0 24 24"><title>List - add</title><path d="M2,8H20a1,1,0,0,0,0-2H2A1,1,0,0,0,2,8Z"/><path d="M2,3H20a1,1,0,0,0,0-2H2A1,1,0,0,0,2,3Z"/><path d="M17,11H2a1,1,0,0,0,0,2H12.54a6,6,0,0,0-1.45,3H2a1,1,0,0,0,0,2h9.09A6,6,0,1,0,17,11Zm0,10a4,4,0,1,1,4-4A4,4,0,0,1,17,21Z"/><path d="M19,16H18V15a1,1,0,0,0-2,0v1H15a1,1,0,0,0,0,2h1v1a1,1,0,0,0,2,0V18h1a1,1,0,0,0,0-2Z"/></svg>