<svg id="interface_essential_by_mad-lab_studio" data-name="interface essential by mad-lab studio" xmlns="http://www.w3.org/2000/svg" viewBox="0 0 24 24"><title>List - remove</title><path d="M2,8H20a1,1,0,0,0,0-2H2A1,1,0,0,0,2,8Z"/><path d="M2,3H20a1,1,0,0,0,0-2H2A1,1,0,0,0,2,3Z"/><path d="M17,11H2a1,1,0,0,0,0,2H12.54a6,6,0,0,0-1.45,3H2a1,1,0,0,0,0,2h9.09A6,6,0,1,0,17,11Zm0,10a4,4,0,1,1,4-4A4,4,0,0,1,17,21Z"/><path d="M18.71,15.29a1,1,0,0,0-1.42,0l-.29.3-.29-.3a1,1,0,0,0-1.42,1.42l.3.29-.3.29a1,1,0,0,0,0,1.42,1,1,0,0,0,1.42,0l.29-.3.29.3a1,1,0,0,0,1.42,0,1,1,0,0,0,0-1.42l-.3-.29.3-.29A1,1,0,0,0,18.71,15.29Z"/></svg>