<svg id="interface_essential_by_mad-lab_studio" data-name="interface essential by mad-lab studio" xmlns="http://www.w3.org/2000/svg" viewBox="0 0 24 24"><title>Loading alt 1</title><path d="M12,22A10,10,0,0,1,4.93,4.93,9.93,9.93,0,0,1,12,2a1,1,0,0,1,0,2,8,8,0,1,0,5.66,13.66,1,1,0,0,1,1.41,1.41A9.93,9.93,0,0,1,12,22Z"/><path d="M19.68,16.8a1,1,0,0,1-.47-1.33h0A1,1,0,0,1,20.54,15h0A1,1,0,0,1,21,16.33h0a1,1,0,0,1-.9.57h0A1,1,0,0,1,19.68,16.8ZM20.83,14A1,1,0,0,1,20,12.89h0a1,1,0,0,1,1.1-.88h0a1,1,0,0,1,.89,1.11h0A1,1,0,0,1,21,14h-.12Zm-1-3.78A1,1,0,0,1,20.55,9h0a1,1,0,0,1,1.2.75h0A1,1,0,0,1,21,11h0a.86.86,0,0,1-.22,0h0A1,1,0,0,1,19.8,10.22Zm-1-2.48h0a1,1,0,0,1,.32-1.38h0a1,1,0,0,1,1.38.32h0a1,1,0,0,1-.32,1.38h0a1,1,0,0,1-.53.15h0A1,1,0,0,1,18.77,7.74ZM17,5.74a1,1,0,0,1-.16-1.4h0a1,1,0,0,1,1.4-.16h0a1,1,0,0,1,.16,1.41h0a1,1,0,0,1-.78.37h0A1,1,0,0,1,17,5.74ZM14.65,4.45h0A1,1,0,0,1,14,3.17h0a1,1,0,0,1,1.27-.61h0a1,1,0,0,1,.62,1.27h0A1,1,0,0,1,15,4.5h0A.89.89,0,0,1,14.65,4.45Z"/></svg>