<svg id="interface_essential_by_mad-lab_studio" data-name="interface essential by mad-lab studio" xmlns="http://www.w3.org/2000/svg" viewBox="0 0 24 24"><title>Loading alt 2</title><path d="M7.5,20.79a1,1,0,0,1-.87-1.5l1.5-2.59a1,1,0,1,1,1.74,1l-1.5,2.59A1,1,0,0,1,7.5,20.79Z"/><path d="M15,7.8a1,1,0,0,1-.87-1.5l1.5-2.59a1,1,0,1,1,1.74,1L15.87,7.3A1,1,0,0,1,15,7.8Z"/><path d="M4.21,17.5a1,1,0,0,1-.5-1.87l2.59-1.5a1,1,0,1,1,1,1.74l-2.59,1.5A1,1,0,0,1,4.21,17.5Z"/><path d="M17.2,10a1,1,0,0,1-.5-1.87l2.59-1.5a1,1,0,0,1,1,1.74L17.7,9.87A1,1,0,0,1,17.2,10Z"/><path d="M6,13H3a1,1,0,0,1,0-2H6a1,1,0,0,1,0,2Z"/><path d="M21,13H18a1,1,0,0,1,0-2h3a1,1,0,0,1,0,2Z"/><path d="M6.8,10a1,1,0,0,1-.5-.13L3.71,8.37a1,1,0,0,1,1-1.74L7.3,8.13A1,1,0,0,1,6.8,10Z"/><path d="M19.79,17.5a1,1,0,0,1-.5-.13l-2.59-1.5a1,1,0,0,1,1-1.74l2.59,1.5a1,1,0,0,1-.5,1.87Z"/><path d="M9,7.8a1,1,0,0,1-.87-.5L6.63,4.71a1,1,0,0,1,1.74-1L9.87,6.3A1,1,0,0,1,9,7.8Z"/><path d="M16.5,20.79a1,1,0,0,1-.87-.5l-1.5-2.59a1,1,0,1,1,1.74-1l1.5,2.59a1,1,0,0,1-.87,1.5Z"/><path d="M12,7a1,1,0,0,1-1-1V3a1,1,0,0,1,2,0V6A1,1,0,0,1,12,7Z"/><path d="M12,22a1,1,0,0,1-1-1V18a1,1,0,0,1,2,0v3A1,1,0,0,1,12,22Z"/></svg>