<svg id="interface_essential_by_mad-lab_studio" data-name="interface essential by mad-lab studio" xmlns="http://www.w3.org/2000/svg" viewBox="0 0 24 24"><title>Loading alt 3</title><path d="M2,18a1,1,0,0,1-1-1V12a1,1,0,0,1,2,0v5A1,1,0,0,1,2,18Z"/><path d="M6,18a1,1,0,0,1-1-1V11a1,1,0,0,1,2,0v6A1,1,0,0,1,6,18Z"/><path d="M10,18a1,1,0,0,1-1-1V10a1,1,0,0,1,2,0v7A1,1,0,0,1,10,18Z"/><path d="M14,18a1,1,0,0,1-1-1V9a1,1,0,0,1,2,0v8A1,1,0,0,1,14,18Z"/><path d="M18,18a1,1,0,0,1-1-1V8a1,1,0,0,1,2,0v9A1,1,0,0,1,18,18Z"/><path d="M22,18a1,1,0,0,1-1-1V7a1,1,0,0,1,2,0V17A1,1,0,0,1,22,18Z"/></svg>