<svg id="interface_essential_by_mad-lab_studio" data-name="interface essential by mad-lab studio" xmlns="http://www.w3.org/2000/svg" viewBox="0 0 24 24"><title>Lock alt 1 - unlock</title><path d="M18,24H6a3,3,0,0,1-3-3V15a3,3,0,0,1,3-3H18a3,3,0,0,1,3,3v6A3,3,0,0,1,18,24ZM6,14a1,1,0,0,0-1,1v6a1,1,0,0,0,1,1H18a1,1,0,0,0,1-1V15a1,1,0,0,0-1-1Z"/><path d="M7,14a1,1,0,0,1-1-1V6A6,6,0,0,1,18,6v4a1,1,0,0,1-2,0V6A4,4,0,0,0,8,6v7A1,1,0,0,1,7,14Z"/><path d="M12,19a2,2,0,1,1,2-2A2,2,0,0,1,12,19Zm0-2h0Zm0,0h0Zm0,0h0Zm0,0h0Zm0,0h0Zm0,0h0Zm0,0h0Zm0,0h0Z"/><path d="M12,21a1,1,0,0,1-1-1V18a1,1,0,0,1,2,0v2A1,1,0,0,1,12,21Z"/></svg>