<svg id="interface_essential_by_mad-lab_studio" data-name="interface essential by mad-lab studio" xmlns="http://www.w3.org/2000/svg" viewBox="0 0 24 24"><title>login alt 3</title><path d="M13,15a1,1,0,0,1-.71-.29,1,1,0,0,1,0-1.42L13.59,12l-1.3-1.29a1,1,0,0,1,1.42-1.42l2,2a1,1,0,0,1,0,1.42l-2,2A1,1,0,0,1,13,15Z"/><path d="M15,13H4a1,1,0,0,1,0-2H15a1,1,0,0,1,0,2Z"/><path d="M20,22l-.18,0-11-2A1,1,0,0,1,8,19V15a1,1,0,0,1,2,0v3.17l9,1.63V4.2L10,5.83V9A1,1,0,0,1,8,9V5a1,1,0,0,1,.82-1l11-2a1,1,0,0,1,.82.21A1,1,0,0,1,21,3V21a1,1,0,0,1-.36.77A1,1,0,0,1,20,22Z"/></svg>