<svg id="interface_essential_by_mad-lab_studio" data-name="interface essential by mad-lab studio" xmlns="http://www.w3.org/2000/svg" viewBox="0 0 24 24"><title>logout alt 2</title><path d="M4,15a1,1,0,0,1-.71-.29l-2-2a1,1,0,0,1,0-1.42l2-2a1,1,0,0,1,1.42,1.42L3.41,12l1.3,1.29a1,1,0,0,1,0,1.42A1,1,0,0,1,4,15Z"/><path d="M15,13H2a1,1,0,0,1,0-2H15a1,1,0,0,1,0,2Z"/><path d="M20,22H10a3,3,0,0,1-3-3V15a1,1,0,0,1,2,0v4a1,1,0,0,0,1,1H20a1,1,0,0,0,1-1V5a1,1,0,0,0-1-1H10A1,1,0,0,0,9,5V9A1,1,0,0,1,7,9V5a3,3,0,0,1,3-3H20a3,3,0,0,1,3,3V19A3,3,0,0,1,20,22Z"/></svg>