<svg id="interface_essential_by_mad-lab_studio" data-name="interface essential by mad-lab studio" xmlns="http://www.w3.org/2000/svg" viewBox="0 0 24 24"><title>Loop</title><path d="M1.08,6.38a1,1,0,0,0,.21.33l3,3a1,1,0,0,0,1.42,0,1,1,0,0,0,0-1.42L4.41,7H16.5A4.51,4.51,0,0,1,21,11.5a1,1,0,0,0,2,0A6.51,6.51,0,0,0,16.5,5H4.41l1.3-1.29A1,1,0,0,0,4.29,2.29l-3,3a1,1,0,0,0-.21.33A1,1,0,0,0,1.08,6.38Z"/><path d="M22.92,17.62a1,1,0,0,0-.21-.33l-3-3a1,1,0,0,0-1.42,1.42L19.59,17H7.5A4.51,4.51,0,0,1,3,12.5a1,1,0,0,0-2,0A6.51,6.51,0,0,0,7.5,19H19.59l-1.3,1.29a1,1,0,0,0,0,1.42,1,1,0,0,0,1.42,0l3-3a1,1,0,0,0,.21-.33A1,1,0,0,0,22.92,17.62Z"/></svg>