<svg id="interface_essential_by_mad-lab_studio" data-name="interface essential by mad-lab studio" xmlns="http://www.w3.org/2000/svg" viewBox="0 0 24 24"><title>Maximize - expand</title><path d="M4.41,3H8A1,1,0,0,0,8,1H2a1,1,0,0,0-.38.08,1,1,0,0,0-.54.54A1,1,0,0,0,1,2V8A1,1,0,0,0,3,8V4.41l5.29,5.3a1,1,0,0,0,1.42,0,1,1,0,0,0,0-1.42Z"/><path d="M22.92,1.62a1,1,0,0,0-.54-.54A1,1,0,0,0,22,1H16a1,1,0,0,0,0,2h3.59l-5.3,5.29a1,1,0,0,0,0,1.42,1,1,0,0,0,1.42,0L21,4.41V8a1,1,0,0,0,2,0V2A1,1,0,0,0,22.92,1.62Z"/><path d="M8.29,14.29,3,19.59V16a1,1,0,0,0-2,0v6a1,1,0,0,0,.08.38,1,1,0,0,0,.54.54A1,1,0,0,0,2,23H8a1,1,0,0,0,0-2H4.41l5.3-5.29a1,1,0,0,0-1.42-1.42Z"/><path d="M22,15a1,1,0,0,0-1,1v3.59l-5.29-5.3a1,1,0,0,0-1.42,1.42L19.59,21H16a1,1,0,0,0,0,2h6a1,1,0,0,0,.38-.08,1,1,0,0,0,.54-.54A1,1,0,0,0,23,22V16A1,1,0,0,0,22,15Z"/></svg>