<svg id="interface_essential_by_mad-lab_studio" data-name="interface essential by mad-lab studio" xmlns="http://www.w3.org/2000/svg" viewBox="0 0 24 24"><title>Maximize 2</title><path d="M22.92,1.62a1,1,0,0,0-.54-.54A1,1,0,0,0,22,1H16a1,1,0,0,0,0,2h3.59l-5.3,5.29a1,1,0,0,0,0,1.42,1,1,0,0,0,1.42,0L21,4.41V8a1,1,0,0,0,2,0V2A1,1,0,0,0,22.92,1.62Z"/><path d="M22,11a1,1,0,0,0-1,1v8a1,1,0,0,1-1,1H4a1,1,0,0,1-1-1V4A1,1,0,0,1,4,3h8a1,1,0,0,0,0-2H4A3,3,0,0,0,1,4V20a3,3,0,0,0,3,3H20a3,3,0,0,0,3-3V12A1,1,0,0,0,22,11Z"/></svg>