<svg id="interface_essential_by_mad-lab_studio" data-name="interface essential by mad-lab studio" xmlns="http://www.w3.org/2000/svg" viewBox="0 0 24 24"><title>menu alt 2</title><path d="M19,13H17a1,1,0,0,1,0-2h2a1,1,0,0,1,0,2Z"/><path d="M19,8H17a1,1,0,0,1,0-2h2a1,1,0,0,1,0,2Z"/><path d="M19,18H17a1,1,0,0,1,0-2h2a1,1,0,0,1,0,2Z"/><path d="M13,13H11a1,1,0,0,1,0-2h2a1,1,0,0,1,0,2Z"/><path d="M13,8H11a1,1,0,0,1,0-2h2a1,1,0,0,1,0,2Z"/><path d="M13,18H11a1,1,0,0,1,0-2h2a1,1,0,0,1,0,2Z"/><path d="M7,13H5a1,1,0,0,1,0-2H7a1,1,0,0,1,0,2Z"/><path d="M7,8H5A1,1,0,0,1,5,6H7A1,1,0,0,1,7,8Z"/><path d="M7,18H5a1,1,0,0,1,0-2H7a1,1,0,0,1,0,2Z"/></svg>