<svg id="interface_essential_by_mad-lab_studio" data-name="interface essential by mad-lab studio" xmlns="http://www.w3.org/2000/svg" viewBox="0 0 24 24"><title>Minimize</title><path d="M9.38,14.08A1,1,0,0,0,9,14H3a1,1,0,0,0,0,2H6.59l-5.3,5.29a1,1,0,0,0,0,1.42,1,1,0,0,0,1.42,0L8,17.41V21a1,1,0,0,0,2,0V15a1,1,0,0,0-.08-.38A1,1,0,0,0,9.38,14.08Z"/><path d="M17.41,16H21a1,1,0,0,0,0-2H15a1,1,0,0,0-.38.08,1,1,0,0,0-.54.54A1,1,0,0,0,14,15v6a1,1,0,0,0,2,0V17.41l5.29,5.3a1,1,0,0,0,1.42,0,1,1,0,0,0,0-1.42Z"/><path d="M9,2A1,1,0,0,0,8,3V6.59L2.71,1.29A1,1,0,0,0,1.29,2.71L6.59,8H3a1,1,0,0,0,0,2H9a1,1,0,0,0,.38-.08,1,1,0,0,0,.54-.54A1,1,0,0,0,10,9V3A1,1,0,0,0,9,2Z"/><path d="M14.62,9.92A1,1,0,0,0,15,10h6a1,1,0,0,0,0-2H17.41l5.3-5.29a1,1,0,1,0-1.42-1.42L16,6.59V3a1,1,0,0,0-2,0V9a1,1,0,0,0,.08.38A1,1,0,0,0,14.62,9.92Z"/></svg>