<svg id="interface_essential_by_mad-lab_studio" data-name="interface essential by mad-lab studio" xmlns="http://www.w3.org/2000/svg" viewBox="0 0 24 24"><title>mouse alt 2</title><path d="M9,24a8,8,0,0,1-8-8V12a8,8,0,0,1,16,0v4A8,8,0,0,1,9,24ZM9,6a6,6,0,0,0-6,6v4a6,6,0,0,0,12,0V12A6,6,0,0,0,9,6Z"/><path d="M9,15a3,3,0,0,1-3-3V11a3,3,0,0,1,6,0v1A3,3,0,0,1,9,15Zm0-5a1,1,0,0,0-1,1v1a1,1,0,0,0,2,0V11A1,1,0,0,0,9,10Z"/><path d="M22,13a1,1,0,0,1-1-1V5a3,3,0,0,0-3-3H13a3,3,0,0,0-3,3V9A1,1,0,0,1,8,9V5a5,5,0,0,1,5-5h5a5,5,0,0,1,5,5v7A1,1,0,0,1,22,13Z"/></svg>