<svg id="interface_essential_by_mad-lab_studio" data-name="interface essential by mad-lab studio" xmlns="http://www.w3.org/2000/svg" viewBox="0 0 24 24"><title>Notification alt 3</title><path d="M19,20H5a1,1,0,0,1-1-1V12a8,8,0,0,1,16,0v7A1,1,0,0,1,19,20ZM6,18H18V12A6,6,0,0,0,6,12Z"/><path d="M12,6a1,1,0,0,1-1-1V3a1,1,0,0,1,2,0V5A1,1,0,0,1,12,6Z"/><path d="M21,20H3a1,1,0,0,1,0-2H21a1,1,0,0,1,0,2Z"/><path d="M12,24a3,3,0,1,1,3-3A3,3,0,0,1,12,24Zm0-4a1,1,0,1,0,1,1A1,1,0,0,0,12,20Z"/><path d="M7,4A1,1,0,0,1,6,3V1A1,1,0,0,1,8,1V3A1,1,0,0,1,7,4Z"/><path d="M3,8H1A1,1,0,0,1,1,6H3A1,1,0,0,1,3,8Z"/><path d="M4,5a1,1,0,0,1-.71-.29l-2-2A1,1,0,0,1,2.71,1.29l2,2a1,1,0,0,1,0,1.42A1,1,0,0,1,4,5Z"/><path d="M17,4a1,1,0,0,1-1-1V1a1,1,0,0,1,2,0V3A1,1,0,0,1,17,4Z"/><path d="M23,8H21a1,1,0,0,1,0-2h2a1,1,0,0,1,0,2Z"/><path d="M20,5a1,1,0,0,1-.71-.29,1,1,0,0,1,0-1.42l2-2a1,1,0,1,1,1.42,1.42l-2,2A1,1,0,0,1,20,5Z"/></svg>