<svg id="interface_essential_by_mad-lab_studio" data-name="interface essential by mad-lab studio" xmlns="http://www.w3.org/2000/svg" viewBox="0 0 24 24"><title>Notification alt 2</title><path d="M12,19A51.74,51.74,0,0,1,1.8,18,1,1,0,0,1,1,17.19a1,1,0,0,1,.43-1A5.75,5.75,0,0,0,4,11.39V10a8,8,0,0,1,16,0v1.39a5.75,5.75,0,0,0,2.55,4.78,1,1,0,0,1,.43,1,1,1,0,0,1-.78.79A51.74,51.74,0,0,1,12,19ZM4.18,16.38a50,50,0,0,0,15.64,0,7.73,7.73,0,0,1-1.82-5V10A6,6,0,0,0,6,10v1.39A7.73,7.73,0,0,1,4.18,16.38Z"/><path d="M12,24a3,3,0,1,1,3-3A3,3,0,0,1,12,24Zm0-4a1,1,0,1,0,1,1A1,1,0,0,0,12,20Z"/><path d="M12,4a1,1,0,0,1-1-1V1a1,1,0,0,1,2,0V3A1,1,0,0,1,12,4Z"/></svg>