<svg id="interface_essential_by_mad-lab_studio" data-name="interface essential by mad-lab studio" xmlns="http://www.w3.org/2000/svg" viewBox="0 0 24 24"><title>Password alt 2</title><path d="M19,24H5a3,3,0,0,1-3-3V19a3,3,0,0,1,3-3H19a3,3,0,0,1,3,3v2A3,3,0,0,1,19,24ZM5,18a1,1,0,0,0-1,1v2a1,1,0,0,0,1,1H19a1,1,0,0,0,1-1V19a1,1,0,0,0-1-1Z"/><circle cx="12" cy="20" r="1"/><circle cx="9" cy="20" r="1"/><circle cx="6" cy="20" r="1"/><circle cx="15" cy="20" r="1"/><circle cx="18" cy="20" r="1"/><path d="M18,14a5.94,5.94,0,0,1-4.46-2H3A3,3,0,0,1,0,9V7A3,3,0,0,1,3,4H13.53A6,6,0,0,1,23.89,9.18h0a6,6,0,0,1-4.67,4.7A6.41,6.41,0,0,1,18,14ZM3,6A1,1,0,0,0,2,7V9a1,1,0,0,0,1,1H14a1,1,0,0,1,.8.4,4,4,0,0,0,7.12-1.59h0A4,4,0,0,0,18,4a4,4,0,0,0-3.2,1.6A1,1,0,0,1,14,6Z"/><path d="M4,12a1,1,0,0,1-1-1V9A1,1,0,0,1,5,9v2A1,1,0,0,1,4,12Z"/><path d="M7,12a1,1,0,0,1-1-1V9A1,1,0,0,1,8,9v2A1,1,0,0,1,7,12Z"/><path d="M10,12a1,1,0,0,1-1-1V9a1,1,0,0,1,2,0v2A1,1,0,0,1,10,12Z"/><circle cx="20" cy="8" r="1"/></svg>