<svg id="interface_essential_by_mad-lab_studio" data-name="interface essential by mad-lab studio" xmlns="http://www.w3.org/2000/svg" viewBox="0 0 24 24"><title>Password alt 1</title><path d="M19,24H5a3,3,0,0,1-3-3V19a3,3,0,0,1,3-3H19a3,3,0,0,1,3,3v2A3,3,0,0,1,19,24ZM5,18a1,1,0,0,0-1,1v2a1,1,0,0,0,1,1H19a1,1,0,0,0,1-1V19a1,1,0,0,0-1-1Z"/><circle cx="12" cy="20" r="1"/><circle cx="9" cy="20" r="1"/><circle cx="6" cy="20" r="1"/><circle cx="15" cy="20" r="1"/><circle cx="18" cy="20" r="1"/><path d="M17,14H7a1,1,0,0,1-1-1V7A1,1,0,0,1,7,6H17a1,1,0,0,1,1,1v6A1,1,0,0,1,17,14ZM8,12h8V8H8Z"/><path d="M15,8H9A1,1,0,0,1,8,7V4a4,4,0,0,1,8,0V7A1,1,0,0,1,15,8ZM10,6h4V4a2,2,0,0,0-4,0Z"/></svg>