<svg id="interface_essential_by_mad-lab_studio" data-name="interface essential by mad-lab studio" xmlns="http://www.w3.org/2000/svg" viewBox="0 0 24 24"><title>Password alt 3</title><path d="M19,24H5a3,3,0,0,1-3-3V19a3,3,0,0,1,3-3H19a3,3,0,0,1,3,3v2A3,3,0,0,1,19,24ZM5,18a1,1,0,0,0-1,1v2a1,1,0,0,0,1,1H19a1,1,0,0,0,1-1V19a1,1,0,0,0-1-1Z"/><circle cx="12" cy="20" r="1"/><circle cx="9" cy="20" r="1"/><circle cx="6" cy="20" r="1"/><circle cx="15" cy="20" r="1"/><circle cx="18" cy="20" r="1"/><path d="M12,8a4,4,0,1,1,4-4A4,4,0,0,1,12,8Zm0-6a2,2,0,1,0,2,2A2,2,0,0,0,12,2Z"/><path d="M19,15H5a1,1,0,0,1-1-1,8,8,0,0,1,16,0A1,1,0,0,1,19,15ZM6.08,13H17.92A6,6,0,0,0,6.08,13Z"/></svg>