<svg id="interface_essential_by_mad-lab_studio" data-name="interface essential by mad-lab studio" xmlns="http://www.w3.org/2000/svg" viewBox="0 0 24 24"><title>Paste alt 2</title><path d="M11,21H4a3,3,0,0,1-3-3V5A3,3,0,0,1,4,2H6A1,1,0,0,1,7,3V4h4V3a1,1,0,0,1,1-1h2a3,3,0,0,1,3,3V9a1,1,0,0,1-2,0V5a1,1,0,0,0-1-1H13V5a1,1,0,0,1-1,1H6A1,1,0,0,1,5,5V4H4A1,1,0,0,0,3,5V18a1,1,0,0,0,1,1h7a1,1,0,0,1,0,2Z"/><path d="M12,6H6A1,1,0,0,1,5,5V1A1,1,0,0,1,6,0h6a1,1,0,0,1,1,1V5A1,1,0,0,1,12,6ZM7,4h4V2H7Z"/><path d="M22,24H11a1,1,0,0,1-1-1V9a1,1,0,0,1,1-1h6a1,1,0,0,1,.71.29l5,5A1,1,0,0,1,23,14v9A1,1,0,0,1,22,24ZM12,22h9V14.41L16.59,10H12Z"/><path d="M18,18H15a1,1,0,0,1,0-2h3a1,1,0,0,1,0,2Z"/><path d="M18,21H15a1,1,0,0,1,0-2h3a1,1,0,0,1,0,2Z"/><path d="M22,15H17a1,1,0,0,1-1-1V9a1,1,0,0,1,.62-.92,1,1,0,0,1,1.09.21l5,5a1,1,0,0,1,.21,1.09A1,1,0,0,1,22,15Zm-4-2h1.59L18,11.41Z"/></svg>