<svg id="interface_essential_by_mad-lab_studio" data-name="interface essential by mad-lab studio" xmlns="http://www.w3.org/2000/svg" viewBox="0 0 24 24"><title>Paste alt 1</title><path d="M10,21H4a3,3,0,0,1-3-3V5A3,3,0,0,1,4,2H6A1,1,0,0,1,7,3V4h4V3a1,1,0,0,1,1-1h2a3,3,0,0,1,3,3V9a1,1,0,0,1-2,0V5a1,1,0,0,0-1-1H13V5a1,1,0,0,1-1,1H6A1,1,0,0,1,5,5V4H4A1,1,0,0,0,3,5V18a1,1,0,0,0,1,1h6a1,1,0,0,1,0,2Z"/><path d="M12,6H6A1,1,0,0,1,5,5V1A1,1,0,0,1,6,0h6a1,1,0,0,1,1,1V5A1,1,0,0,1,12,6ZM7,4h4V2H7Z"/><path d="M20,24H12a3,3,0,0,1-3-3V11a3,3,0,0,1,3-3h8a3,3,0,0,1,3,3V21A3,3,0,0,1,20,24ZM12,10a1,1,0,0,0-1,1V21a1,1,0,0,0,1,1h8a1,1,0,0,0,1-1V11a1,1,0,0,0-1-1Z"/><path d="M18,14H14a1,1,0,0,1,0-2h4a1,1,0,0,1,0,2Z"/><path d="M18,17H14a1,1,0,0,1,0-2h4a1,1,0,0,1,0,2Z"/><path d="M18,20H14a1,1,0,0,1,0-2h4a1,1,0,0,1,0,2Z"/></svg>