<svg id="interface_essential_by_mad-lab_studio" data-name="interface essential by mad-lab studio" xmlns="http://www.w3.org/2000/svg" viewBox="0 0 24 24"><title>Pin 2</title><path d="M12,11A3,3,0,1,0,9,8,3,3,0,0,0,12,11Zm0-4a1,1,0,1,1-1,1A1,1,0,0,1,12,7Z"/><path d="M17.14,16.89A15.66,15.66,0,0,0,20,8,8,8,0,0,0,4,8a15.66,15.66,0,0,0,2.86,8.89C5.05,17.62,4,18.73,4,20c0,2.63,4,4,8,4s8-1.37,8-4C20,18.73,19,17.62,17.14,16.89ZM12,2a6,6,0,0,1,6,6c0,4.5-2.77,10-6,10S6,12.5,6,8A6,6,0,0,1,12,2Zm0,20c-3.72,0-6-1.29-6-2,0-.37.74-1,2.34-1.51A5.62,5.62,0,0,0,12,20a5.62,5.62,0,0,0,3.66-1.51C17.26,19,18,19.63,18,20,18,20.71,15.72,22,12,22Z"/></svg>