<svg id="interface_essential_by_mad-lab_studio" data-name="interface essential by mad-lab studio" xmlns="http://www.w3.org/2000/svg" viewBox="0 0 24 24"><title>Print alt 2</title><path d="M21,22H18a1,1,0,0,1,0-2h3a1,1,0,0,0,1-1V14a1,1,0,0,0-1-1H3a1,1,0,0,0-1,1v5a1,1,0,0,0,1,1H6a1,1,0,0,1,0,2H3a3,3,0,0,1-3-3V14a3,3,0,0,1,3-3H21a3,3,0,0,1,3,3v5A3,3,0,0,1,21,22Z"/><path d="M18,13H6a1,1,0,0,1-1-1V1A1,1,0,0,1,6,0h7a1,1,0,0,1,0,2H7v9H17V6a1,1,0,0,1,2,0v6A1,1,0,0,1,18,13Z"/><path d="M18,7H13a1,1,0,0,1-1-1V1a1,1,0,0,1,.62-.92,1,1,0,0,1,1.09.21l5,5a1,1,0,0,1,.21,1.09A1,1,0,0,1,18,7ZM14,5h1.59L14,3.41Z"/><path d="M17,24H7a2,2,0,0,1-2-2V20a2,2,0,0,1,2-2H17a2,2,0,0,1,2,2v2A2,2,0,0,1,17,24ZM7,20v2H17V20Z"/><circle cx="4" cy="15" r="1"/></svg>