<svg id="interface_essential_by_mad-lab_studio" data-name="interface essential by mad-lab studio" xmlns="http://www.w3.org/2000/svg" viewBox="0 0 24 24"><title>Print alt 1</title><path d="M21,20H18a1,1,0,0,1,0-2h3a1,1,0,0,0,1-1V12a1,1,0,0,0-1-1H3a1,1,0,0,0-1,1v5a1,1,0,0,0,1,1H6a1,1,0,0,1,0,2H3a3,3,0,0,1-3-3V12A3,3,0,0,1,3,9H21a3,3,0,0,1,3,3v5A3,3,0,0,1,21,20Z"/><path d="M18,11H6a1,1,0,0,1-1-1V1A1,1,0,0,1,6,0h7a1,1,0,0,1,0,2H7V9H17V6a1,1,0,0,1,2,0v4A1,1,0,0,1,18,11Z"/><path d="M18,24H6a1,1,0,0,1-1-1V14a1,1,0,0,1,1-1H18a1,1,0,0,1,1,1v9A1,1,0,0,1,18,24ZM7,22H17V15H7Z"/><path d="M15,18H9a1,1,0,0,1,0-2h6a1,1,0,0,1,0,2Z"/><path d="M15,21H9a1,1,0,0,1,0-2h6a1,1,0,0,1,0,2Z"/><path d="M18,7H13a1,1,0,0,1-1-1V1a1,1,0,0,1,.62-.92,1,1,0,0,1,1.09.21l5,5a1,1,0,0,1,.21,1.09A1,1,0,0,1,18,7ZM14,5h1.59L14,3.41Z"/></svg>