<svg id="interface_essential_by_mad-lab_studio" data-name="interface essential by mad-lab studio" xmlns="http://www.w3.org/2000/svg" viewBox="0 0 24 24"><title>Reflect horizontal</title><path d="M23,18a.94.94,0,0,1-.58-.19l-7-5a1,1,0,0,1,0-1.62l7-5A1,1,0,0,1,24,7V17a1,1,0,0,1-.54.89A1.07,1.07,0,0,1,23,18Zm-5.28-6L22,15.06V8.94Z"/><path d="M1,18a1.07,1.07,0,0,1-.46-.11A1,1,0,0,1,0,17V7a1,1,0,0,1,1.58-.81l7,5a1,1,0,0,1,0,1.62l-7,5A.94.94,0,0,1,1,18ZM2,8.94v6.12L6.28,12Z"/><path d="M12,3a1,1,0,0,1-.38-.08,1.15,1.15,0,0,1-.33-.21,1.15,1.15,0,0,1-.21-.33A1,1,0,0,1,11,2a1,1,0,0,1,.29-.71,1,1,0,0,1,1.42,0A1.05,1.05,0,0,1,13,2a1,1,0,0,1-.29.71,1.15,1.15,0,0,1-.33.21A1,1,0,0,1,12,3Z"/><path d="M11,18a1,1,0,0,1,1-1h0a1,1,0,0,1,1,1h0a1,1,0,0,1-1,1h0A1,1,0,0,1,11,18Zm0-4a1,1,0,0,1,1-1h0a1,1,0,0,1,1,1h0a1,1,0,0,1-1,1h0A1,1,0,0,1,11,14Zm0-4a1,1,0,0,1,1-1h0a1,1,0,0,1,1,1h0a1,1,0,0,1-1,1h0A1,1,0,0,1,11,10Zm0-4a1,1,0,0,1,1-1h0a1,1,0,0,1,1,1h0a1,1,0,0,1-1,1h0A1,1,0,0,1,11,6Z"/><path d="M12,23a1,1,0,0,1-.92-1.38,1.15,1.15,0,0,1,.21-.33,1,1,0,0,1,1.42,0,1,1,0,0,1,.21.33A1,1,0,0,1,12,23Z"/></svg>