<svg id="interface_essential_by_mad-lab_studio" data-name="interface essential by mad-lab studio" xmlns="http://www.w3.org/2000/svg" viewBox="0 0 24 24"><title>Reflect vertical</title><path d="M12,9a1,1,0,0,1-.81-.42l-5-7a1,1,0,0,1-.08-1A1,1,0,0,1,7,0H17a1,1,0,0,1,.89.54,1,1,0,0,1-.08,1l-5,7A1,1,0,0,1,12,9ZM8.94,2,12,6.28,15.06,2Z"/><path d="M17,24H7a1,1,0,0,1-.81-1.58l5-7a1,1,0,0,1,1.62,0l5,7A1,1,0,0,1,17,24ZM8.94,22h6.12L12,17.72Z"/><path d="M2,13a1,1,0,0,1-.71-.29,1.15,1.15,0,0,1-.21-.33.94.94,0,0,1,0-.76,1.15,1.15,0,0,1,.21-.33,1.15,1.15,0,0,1,.33-.21,1,1,0,0,1,1.09.21,1.15,1.15,0,0,1,.21.33,1,1,0,0,1-.21,1.09,1.15,1.15,0,0,1-.33.21A1,1,0,0,1,2,13Z"/><path d="M17,12a1,1,0,0,1,1-1h0a1,1,0,0,1,1,1h0a1,1,0,0,1-1,1h0A1,1,0,0,1,17,12Zm-4,0a1,1,0,0,1,1-1h0a1,1,0,0,1,1,1h0a1,1,0,0,1-1,1h0A1,1,0,0,1,13,12ZM9,12a1,1,0,0,1,1-1h0a1,1,0,0,1,1,1h0a1,1,0,0,1-1,1h0A1,1,0,0,1,9,12ZM5,12a1,1,0,0,1,1-1H6a1,1,0,0,1,1,1H7a1,1,0,0,1-1,1H6A1,1,0,0,1,5,12Z"/><path d="M22,13a1,1,0,0,1-.71-.29,1.15,1.15,0,0,1-.21-.33.94.94,0,0,1,0-.76.9.9,0,0,1,.54-.54,1,1,0,0,1,1.09.21,1.15,1.15,0,0,1,.21.33A.84.84,0,0,1,23,12a1,1,0,0,1-.29.71,1.15,1.15,0,0,1-.33.21A1,1,0,0,1,22,13Z"/></svg>