<svg id="interface_essential_by_mad-lab_studio" data-name="interface essential by mad-lab studio" xmlns="http://www.w3.org/2000/svg" viewBox="0 0 24 24"><title>Replay 1 item</title><path d="M12,4H4.41l2.3-2.29A1,1,0,0,0,5.29.29l-4,4a1,1,0,0,0-.21.33,1,1,0,0,0,0,.76,1,1,0,0,0,.21.33l4,4a1,1,0,0,0,1.42,0,1,1,0,0,0,0-1.42L4.41,6H12a8,8,0,1,1-8,8,1,1,0,0,0-2,0A10,10,0,1,0,12,4Z"/><path d="M10,18a1,1,0,0,0,.51-.14l5-3a1,1,0,0,0,0-1.72l-5-3A1,1,0,0,0,9,11v6a1,1,0,0,0,.51.87A1,1,0,0,0,10,18Zm1-5.23L13.06,14,11,15.23Z"/></svg>