<svg id="interface_essential_by_mad-lab_studio" data-name="interface essential by mad-lab studio" xmlns="http://www.w3.org/2000/svg" viewBox="0 0 24 24"><title>Scroll vertical</title><path d="M12,15a3,3,0,1,1,3-3A3,3,0,0,1,12,15Zm0-4a1,1,0,1,0,1,1A1,1,0,0,0,12,11Z"/><path d="M15,5a1,1,0,0,1-.71-.29L12,2.41,9.71,4.71A1,1,0,0,1,8.29,3.29l3-3a1,1,0,0,1,1.42,0l3,3a1,1,0,0,1,0,1.42A1,1,0,0,1,15,5Z"/><path d="M12,24a1,1,0,0,1-.71-.29l-3-3a1,1,0,0,1,1.42-1.42L12,21.59l2.29-2.3a1,1,0,0,1,1.42,1.42l-3,3A1,1,0,0,1,12,24Z"/></svg>