<svg id="interface_essential_by_mad-lab_studio" data-name="interface essential by mad-lab studio" xmlns="http://www.w3.org/2000/svg" viewBox="0 0 24 24"><title>Scroll horizontal</title><path d="M12,15a3,3,0,1,1,3-3A3,3,0,0,1,12,15Zm0-4a1,1,0,1,0,1,1A1,1,0,0,0,12,11Z"/><path d="M20,16a1,1,0,0,1-.71-.29,1,1,0,0,1,0-1.42L21.59,12l-2.3-2.29a1,1,0,0,1,1.42-1.42l3,3a1,1,0,0,1,0,1.42l-3,3A1,1,0,0,1,20,16Z"/><path d="M4,16a1,1,0,0,1-.71-.29l-3-3a1,1,0,0,1,0-1.42l3-3A1,1,0,0,1,4.71,9.71L2.41,12l2.3,2.29a1,1,0,0,1,0,1.42A1,1,0,0,1,4,16Z"/></svg>