<svg id="interface_essential_by_mad-lab_studio" data-name="interface essential by mad-lab studio" xmlns="http://www.w3.org/2000/svg" viewBox="0 0 24 24"><title>Search alt 2</title><path d="M19,24a1,1,0,0,1-.71-.29l-6-6a1,1,0,0,1,0-1.42l4-4a1,1,0,0,1,1.42,0l6,6a1,1,0,0,1,0,1.42l-4,4A1,1,0,0,1,19,24Zm-4.59-7L19,21.59,21.59,19,17,14.41Z"/><path d="M8,16a8,8,0,1,1,8-8A8,8,0,0,1,8,16ZM8,2a6,6,0,1,0,6,6A6,6,0,0,0,8,2Z"/><path d="M15,16a1,1,0,0,1-.71-.29l-2-2a1,1,0,0,1,1.42-1.42l2,2a1,1,0,0,1,0,1.42A1,1,0,0,1,15,16Z"/></svg>