<svg id="interface_essential_by_mad-lab_studio" data-name="interface essential by mad-lab studio" xmlns="http://www.w3.org/2000/svg" viewBox="0 0 24 24"><title>Select</title><path d="M23.29,13,10.75,9.19A3,3,0,0,0,11,8V3A3,3,0,0,0,8,0H3A3,3,0,0,0,0,3V8a3,3,0,0,0,3,3H8a3,3,0,0,0,1.19-.25L13,23.29A1,1,0,0,0,14,24h0a1,1,0,0,0,.93-.63l1.44-3.59,2.92,2.93a1,1,0,0,0,1.42,0l2-2a1,1,0,0,0,0-1.42l-2.93-2.92,3.59-1.44A1,1,0,0,0,23.29,13ZM9,8A1,1,0,0,1,8,9H3A1,1,0,0,1,2,8V3A1,1,0,0,1,3,2H8A1,1,0,0,1,9,3Zm8.63,7.07a1,1,0,0,0-.34,1.64L20.59,20l-.59.59-3.29-3.3A1,1,0,0,0,16,17l-.2,0a1,1,0,0,0-.73.61l-1,2.37-2.61-8.49L20,14.12Z"/></svg>