<svg id="interface_essential_by_mad-lab_studio" data-name="interface essential by mad-lab studio" xmlns="http://www.w3.org/2000/svg" viewBox="0 0 24 24"><title>Settings alt 1</title><path d="M14,24H10a1,1,0,0,1-1-.8l-.36-1.78c-.33-.12-.65-.25-1-.4l-1.5,1a1,1,0,0,1-1.26-.12L2.1,19.07A1,1,0,0,1,2,17.81l1-1.5a9,9,0,0,1-.4-1L.8,15A1,1,0,0,1,0,14V10A1,1,0,0,1,.8,9l1.78-.36a9,9,0,0,1,.4-1L2,6.19A1,1,0,0,1,2.1,4.93L4.93,2.1A1,1,0,0,1,6.19,2l1.5,1c.32-.15.64-.28,1-.4L9,.8A1,1,0,0,1,10,0h4a1,1,0,0,1,1,.8l.36,1.78c.33.12.65.25,1,.4l1.5-1a1,1,0,0,1,1.26.12L21.9,4.93A1,1,0,0,1,22,6.19l-1,1.5a9,9,0,0,1,.4,1L23.2,9a1,1,0,0,1,.8,1v4a1,1,0,0,1-.8,1l-1.78.36a9,9,0,0,1-.4,1l1,1.5a1,1,0,0,1-.12,1.26L19.07,21.9a1,1,0,0,1-1.26.12l-1.5-1c-.32.15-.64.28-1,.4L15,23.2A1,1,0,0,1,14,24Zm-3.18-2h2.36l.31-1.55a1,1,0,0,1,.71-.76,8,8,0,0,0,1.68-.7,1,1,0,0,1,1,0l1.31.88,1.67-1.67L19,16.93a1,1,0,0,1,0-1,8.36,8.36,0,0,0,.7-1.69,1,1,0,0,1,.76-.71L22,13.18V10.82l-1.55-.31a1,1,0,0,1-.76-.71A8.36,8.36,0,0,0,19,8.11a1,1,0,0,1,0-1l.88-1.31L18.24,4.09,16.93,5a1,1,0,0,1-1,0,8,8,0,0,0-1.68-.7,1,1,0,0,1-.71-.76L13.18,2H10.82l-.31,1.55a1,1,0,0,1-.71.76A8,8,0,0,0,8.12,5a1,1,0,0,1-1,0L5.76,4.09,4.09,5.76,5,7.07a1,1,0,0,1,0,1,8.36,8.36,0,0,0-.7,1.69,1,1,0,0,1-.76.71L2,10.82v2.36l1.55.31a1,1,0,0,1,.76.71A8.36,8.36,0,0,0,5,15.89a1,1,0,0,1,0,1l-.88,1.31,1.67,1.67L7.07,19a1,1,0,0,1,1,0,8,8,0,0,0,1.68.7,1,1,0,0,1,.71.76ZM23,14h0Z"/><path d="M12,18a6,6,0,1,1,6-6A6,6,0,0,1,12,18ZM12,8a4,4,0,1,0,4,4A4,4,0,0,0,12,8Z"/></svg>