<svg id="interface_essential_by_mad-lab_studio" data-name="interface essential by mad-lab studio" xmlns="http://www.w3.org/2000/svg" viewBox="0 0 24 24"><title>Settings alt 2</title><path d="M17,8a3,3,0,1,1,3-3A3,3,0,0,1,17,8Zm0-4a1,1,0,1,0,1,1A1,1,0,0,0,17,4Z"/><path d="M15,6H2A1,1,0,0,1,2,4H15a1,1,0,0,1,0,2Z"/><path d="M22,6H19a1,1,0,0,1,0-2h3a1,1,0,0,1,0,2Z"/><path d="M12,15a3,3,0,1,1,3-3A3,3,0,0,1,12,15Zm0-4a1,1,0,1,0,1,1A1,1,0,0,0,12,11Z"/><path d="M10,13H2a1,1,0,0,1,0-2h8a1,1,0,0,1,0,2Z"/><path d="M22,13H14a1,1,0,0,1,0-2h8a1,1,0,0,1,0,2Z"/><path d="M7,22a3,3,0,1,1,3-3A3,3,0,0,1,7,22Zm0-4a1,1,0,1,0,1,1A1,1,0,0,0,7,18Z"/><path d="M22,20H9a1,1,0,0,1,0-2H22a1,1,0,0,1,0,2Z"/><path d="M5,20H2a1,1,0,0,1,0-2H5a1,1,0,0,1,0,2Z"/></svg>