<svg id="interface_essential_by_mad-lab_studio" data-name="interface essential by mad-lab studio" xmlns="http://www.w3.org/2000/svg" viewBox="0 0 24 24"><title>Settings alt 3</title><path d="M17,6H2A1,1,0,0,1,2,4H17a1,1,0,0,1,0,2Z"/><path d="M22,6H17a1,1,0,0,1,0-2h5a1,1,0,0,1,0,2Z"/><path d="M12,13H2a1,1,0,0,1,0-2H12a1,1,0,0,1,0,2Z"/><path d="M22,13H12a1,1,0,0,1,0-2H22a1,1,0,0,1,0,2Z"/><path d="M22,20H7a1,1,0,0,1,0-2H22a1,1,0,0,1,0,2Z"/><path d="M7,20H2a1,1,0,0,1,0-2H7a1,1,0,0,1,0,2Z"/><path d="M17,8a1,1,0,0,1-1-1V3a1,1,0,0,1,2,0V7A1,1,0,0,1,17,8Z"/><path d="M12,15a1,1,0,0,1-1-1V10a1,1,0,0,1,2,0v4A1,1,0,0,1,12,15Z"/><path d="M7,22a1,1,0,0,1-1-1V17a1,1,0,0,1,2,0v4A1,1,0,0,1,7,22Z"/></svg>