<svg id="interface_essential_by_mad-lab_studio" data-name="interface essential by mad-lab studio" xmlns="http://www.w3.org/2000/svg" viewBox="0 0 24 24"><title>Share alt 2</title><path d="M1,21a1,1,0,0,1-.34-.06A1,1,0,0,1,0,20,13,13,0,0,1,13,7h1V4a1,1,0,0,1,.57-.9,1,1,0,0,1,1.06.12l8,6.5a1,1,0,0,1,0,1.56l-8,6.5a1,1,0,0,1-1.06.12A1,1,0,0,1,14,17V14A16.41,16.41,0,0,0,2.55,19.72l-.79.93A1,1,0,0,1,1,21ZM13,9A11,11,0,0,0,2.43,17,18.41,18.41,0,0,1,15,12a1,1,0,0,1,1,1v1.9l5.41-4.4L16,6.1V8a1,1,0,0,1-1,1Z"/></svg>