<svg id="interface_essential_by_mad-lab_studio" data-name="interface essential by mad-lab studio" xmlns="http://www.w3.org/2000/svg" viewBox="0 0 24 24"><title>Share alt 1</title><path d="M5,16a4,4,0,1,1,4-4A4,4,0,0,1,5,16Zm0-6a2,2,0,1,0,2,2A2,2,0,0,0,5,10Z"/><path d="M19,24a4,4,0,1,1,4-4A4,4,0,0,1,19,24Zm0-6a2,2,0,1,0,2,2A2,2,0,0,0,19,18Z"/><path d="M19,8a4,4,0,1,1,4-4A4,4,0,0,1,19,8Zm0-6a2,2,0,1,0,2,2A2,2,0,0,0,19,2Z"/><path d="M16.39,19.51a1,1,0,0,1-.49-.13l-8.8-5a1,1,0,1,1,1-1.73l8.79,5a1,1,0,0,1-.5,1.87Z"/><path d="M7.6,11.51a1,1,0,0,1-.49-1.86l8.79-5a1,1,0,1,1,1,1.73l-8.79,5A1,1,0,0,1,7.6,11.51Z"/></svg>