<svg id="interface_essential_by_mad-lab_studio" data-name="interface essential by mad-lab studio" xmlns="http://www.w3.org/2000/svg" viewBox="0 0 24 24"><title>Shuffle</title><path d="M22.92,14.62a1,1,0,0,0-.21-.33l-3-3a1,1,0,0,0-1.42,1.42L19.59,14H15a1,1,0,0,1-.78-.38l-2.5-3.12,2.5-3.12A1,1,0,0,1,15,7h4.63l-1.3,1.29a1,1,0,0,0,0,1.42,1,1,0,0,0,1.42,0l3-3a1,1,0,0,0,.21-.33,1,1,0,0,0,0-.76,1,1,0,0,0-.21-.33l-3-3a1,1,0,0,0-1.42,1.42L19.59,5H15a3,3,0,0,0-2.34,1.13L10.4,8.9l-3-3.78A3,3,0,0,0,5,4H1A1,1,0,0,0,1,6H5a1,1,0,0,1,.78.38l3.3,4.12-3.3,4.12A1,1,0,0,1,5,15H1a1,1,0,0,0,0,2H5a3,3,0,0,0,2.34-1.13l3-3.77,2.22,2.78A3,3,0,0,0,15,16h4.63l-1.3,1.29a1,1,0,0,0,0,1.42,1,1,0,0,0,1.42,0l3-3a1,1,0,0,0,.21-.33A1,1,0,0,0,22.92,14.62Z"/></svg>