<svg id="interface_essential_by_mad-lab_studio" data-name="interface essential by mad-lab studio" xmlns="http://www.w3.org/2000/svg" viewBox="0 0 24 24"><title>Stats alt 3</title><path d="M23,22H1a1,1,0,0,1-1-1V3A1,1,0,0,1,2,3V20H23a1,1,0,0,1,0,2Z"/><path d="M8,22H4a1,1,0,0,1-1-1V16a3,3,0,0,1,6,0v5A1,1,0,0,1,8,22ZM5,20H7V16a1,1,0,0,0-2,0Z"/><path d="M15,22H11a1,1,0,0,1-1-1V12a3,3,0,0,1,6,0v9A1,1,0,0,1,15,22Zm-3-2h2V12a1,1,0,0,0-2,0Z"/><path d="M22,22H18a1,1,0,0,1-1-1V7a3,3,0,0,1,6,0V21A1,1,0,0,1,22,22Zm-3-2h2V7a1,1,0,0,0-2,0Z"/></svg>