<svg id="interface_essential_by_mad-lab_studio" data-name="interface essential by mad-lab studio" xmlns="http://www.w3.org/2000/svg" viewBox="0 0 24 24"><title>Stats alt 2</title><path d="M23,23H1a1,1,0,0,1-1-1V4A1,1,0,0,1,2,4V21H23a1,1,0,0,1,0,2Z"/><path d="M5,23a1,1,0,0,1-1-1V18a1,1,0,0,1,2,0v4A1,1,0,0,1,5,23Z"/><path d="M9,23a1,1,0,0,1-1-1V13a1,1,0,0,1,2,0v9A1,1,0,0,1,9,23Z"/><path d="M13,23a1,1,0,0,1-1-1V11a1,1,0,0,1,2,0V22A1,1,0,0,1,13,23Z"/><path d="M17,23a1,1,0,0,1-1-1V15a1,1,0,0,1,2,0v7A1,1,0,0,1,17,23Z"/><path d="M21,23a1,1,0,0,1-1-1V8a1,1,0,0,1,2,0V22A1,1,0,0,1,21,23Z"/><path d="M5,13a1,1,0,0,1-.62-.22,1,1,0,0,1-.16-1.4l4-5a.86.86,0,0,1,.33-.27l4-2a1,1,0,0,1,1.16.18l3.07,3.08L20.13,1.5a1,1,0,0,1,1.74,1l-4,7a1,1,0,0,1-1.58.21L12.8,6.22,9.64,7.8,5.78,12.62A1,1,0,0,1,5,13Z"/></svg>