<svg id="interface_essential_by_mad-lab_studio" data-name="interface essential by mad-lab studio" xmlns="http://www.w3.org/2000/svg" viewBox="0 0 24 24"><title>Synchronize alt 2</title><path d="M22.92,21.38a1,1,0,0,0,0-.76,1,1,0,0,0-.21-.33l-2-2a1,1,0,0,0-1.42,1.42l.3.29H12A8,8,0,0,1,4.83,8.44,1,1,0,0,0,4.38,7.1,1,1,0,0,0,3,7.55,10,10,0,0,0,12,22h7.59l-.3.29a1,1,0,0,0,0,1.42,1,1,0,0,0,1.42,0l2-2A1,1,0,0,0,22.92,21.38Z"/><path d="M1.29,3.71l2,2a1,1,0,0,0,1.42,0,1,1,0,0,0,0-1.42L4.41,4H12a8,8,0,0,1,7.17,11.56,1,1,0,0,0,.45,1.34,1,1,0,0,0,.44.1,1,1,0,0,0,.9-.55A10,10,0,0,0,12,2H4.41l.3-.29A1,1,0,0,0,3.29.29l-2,2a1,1,0,0,0-.21.33,1,1,0,0,0,0,.76A1,1,0,0,0,1.29,3.71Z"/><path d="M16.33,9.5A1,1,0,0,0,15,9.13l-.11.07A4,4,0,0,0,13,8.14V8a1,1,0,0,0-2,0v.14A4,4,0,0,0,9.15,9.2L9,9.13a1,1,0,0,0-1,1.74l.12.07A4.12,4.12,0,0,0,8,12a4.12,4.12,0,0,0,.16,1.06L8,13.13a1,1,0,0,0,1,1.74l.11-.07A4,4,0,0,0,11,15.86V16a1,1,0,0,0,2,0v-.14a4,4,0,0,0,1.85-1.06l.11.07a1,1,0,0,0,1-1.74l-.12-.07A4.12,4.12,0,0,0,16,12a4.12,4.12,0,0,0-.16-1.06l.12-.07A1,1,0,0,0,16.33,9.5ZM12,14a2,2,0,1,1,2-2A2,2,0,0,1,12,14Z"/></svg>