<svg id="interface_essential_by_mad-lab_studio" data-name="interface essential by mad-lab studio" xmlns="http://www.w3.org/2000/svg" viewBox="0 0 24 24"><title>Target</title><path d="M12,0A12,12,0,1,0,24,12,12,12,0,0,0,12,0Zm1,22V20a1,1,0,0,0-2,0V22A10,10,0,0,1,2.05,13H4a1,1,0,0,0,0-2H2.05a10,10,0,0,1,9-8.95V4a1,1,0,0,0,2,0V2.05a10,10,0,0,1,9,9H20a1,1,0,0,0,0,2H22A10,10,0,0,1,13,22Z"/><circle cx="12" cy="12" r="1"/><path d="M8,11a1,1,0,0,0,1-1V9h1a1,1,0,0,0,0-2H8A1,1,0,0,0,7,8v2A1,1,0,0,0,8,11Z"/><path d="M16,7H14a1,1,0,0,0,0,2h1v1a1,1,0,0,0,2,0V8A1,1,0,0,0,16,7Z"/><path d="M10,15H9V14a1,1,0,0,0-2,0v2a1,1,0,0,0,1,1h2a1,1,0,0,0,0-2Z"/><path d="M16,13a1,1,0,0,0-1,1v1H14a1,1,0,0,0,0,2h2a1,1,0,0,0,1-1V14A1,1,0,0,0,16,13Z"/></svg>