<svg id="interface_essential_by_mad-lab_studio" data-name="interface essential by mad-lab studio" xmlns="http://www.w3.org/2000/svg" viewBox="0 0 24 24"><title>Text style</title><path d="M15,21a1,1,0,0,1-.92-.6L8,6.5,1.92,20.4a1,1,0,1,1-1.84-.8l7-16a1,1,0,0,1,1.84,0l7,16a1,1,0,0,1-.52,1.32A1.14,1.14,0,0,1,15,21Z"/><path d="M11,13H5a1,1,0,0,1,0-2h6a1,1,0,0,1,0,2Z"/><path d="M23,21a1,1,0,0,1-1-1V14a1,1,0,0,0-1-1H18a1,1,0,0,1,0-2h3a3,3,0,0,1,3,3v6A1,1,0,0,1,23,21Z"/><path d="M21,21H20a3,3,0,0,1,0-6h3a1,1,0,0,1,1,1v2A3,3,0,0,1,21,21Zm-1-4a1,1,0,0,0,0,2h1a1,1,0,0,0,1-1V17Z"/></svg>