<svg id="interface_essential_by_mad-lab_studio" data-name="interface essential by mad-lab studio" xmlns="http://www.w3.org/2000/svg" viewBox="0 0 24 24"><title>Text format</title><path d="M15.32,12.61h0l-2.39-6a1,1,0,0,0-1.86,0l-2.39,6h0l-1.61,4a1,1,0,1,0,1.86.74L10.28,14h3.44l1.35,3.37A1,1,0,0,0,16,18a1,1,0,0,0,.37-.07,1,1,0,0,0,.56-1.3ZM11.08,12,12,9.69,12.92,12Z"/><path d="M24,4V2a2,2,0,0,0-2-2H20a2,2,0,0,0-2,2H6A2,2,0,0,0,4,0H2A2,2,0,0,0,0,2V4A2,2,0,0,0,2,6V18a2,2,0,0,0-2,2v2a2,2,0,0,0,2,2H4a2,2,0,0,0,2-2H18a2,2,0,0,0,2,2h2a2,2,0,0,0,2-2V20a2,2,0,0,0-2-2V6A2,2,0,0,0,24,4ZM20,2h2V4H20ZM2,2H4V3H4V4H2ZM2,22V20H4v1H4v1Zm20,0H20V20h2Zm-2-4a2,2,0,0,0-2,2H6a2,2,0,0,0-2-2V6A2,2,0,0,0,6,4H18a2,2,0,0,0,2,2Z"/></svg>