<svg id="interface_essential_by_mad-lab_studio" data-name="interface essential by mad-lab studio" xmlns="http://www.w3.org/2000/svg" viewBox="0 0 24 24"><title>Time alt 3</title><path d="M12,13A7,7,0,0,1,5,6V1A1,1,0,0,1,6,0H18a1,1,0,0,1,1,1V6A7,7,0,0,1,12,13ZM7,2V6A5,5,0,0,0,17,6V2Z"/><path d="M20,2H4A1,1,0,0,1,4,0H20a1,1,0,0,1,0,2Z"/><path d="M18,24H6a1,1,0,0,1-1-1V18a7,7,0,0,1,14,0v5A1,1,0,0,1,18,24ZM7,22H17V18A5,5,0,0,0,7,18Z"/><path d="M20,24H4a1,1,0,0,1,0-2H20a1,1,0,0,1,0,2Z"/><path d="M18,19H6a1,1,0,0,1,0-2H18a1,1,0,0,1,0,2Z"/></svg>