<svg id="interface_essential_by_mad-lab_studio" data-name="interface essential by mad-lab studio" xmlns="http://www.w3.org/2000/svg" viewBox="0 0 24 24"><title>Touch ID alt 1</title><path d="M23,15a1,1,0,0,1-1-1V12A10,10,0,0,0,2,12v2a1,1,0,0,1-2,0V12a12,12,0,0,1,24,0v2A1,1,0,0,1,23,15Z"/><path d="M1,19a1,1,0,0,1-1-1V17a1,1,0,0,1,2,0v1A1,1,0,0,1,1,19Z"/><path d="M1,24a1,1,0,0,1-1-1V21a1,1,0,0,1,2,0v2A1,1,0,0,1,1,24Z"/><path d="M23,19a1,1,0,0,1-1-1V17a1,1,0,0,1,2,0v1A1,1,0,0,1,23,19Z"/><path d="M23,24a1,1,0,0,1-1-1V21a1,1,0,0,1,2,0v2A1,1,0,0,1,23,24Z"/><path d="M19,24a1,1,0,0,1-1-1V20a1,1,0,0,1,2,0v3A1,1,0,0,1,19,24Z"/><path d="M5,24a1,1,0,0,1-1-1V20a1,1,0,0,1,2,0v3A1,1,0,0,1,5,24Z"/><path d="M19,18a1,1,0,0,1-1-1V12A6,6,0,0,0,6,12v5a1,1,0,0,1-2,0V12a8,8,0,0,1,16,0v5A1,1,0,0,1,19,18Z"/><path d="M15,22a1,1,0,0,1-1-1V18a1,1,0,0,1,2,0v3A1,1,0,0,1,15,22Z"/><path d="M15,16a1,1,0,0,1-1-1V12a2,2,0,0,0-4,0v3a1,1,0,0,1-2,0V12a4,4,0,0,1,8,0v3A1,1,0,0,1,15,16Z"/><path d="M9,22a1,1,0,0,1-1-1V18a1,1,0,0,1,2,0v3A1,1,0,0,1,9,22Z"/><path d="M12,24a1,1,0,0,1-1-1V13a1,1,0,0,1,2,0V23A1,1,0,0,1,12,24Z"/></svg>