<svg id="interface_essential_by_mad-lab_studio" data-name="interface essential by mad-lab studio" xmlns="http://www.w3.org/2000/svg" viewBox="0 0 24 24"><title>Unlink alt 1</title><path d="M6.7,22.3a5,5,0,0,1-3.54-8.53L6.7,10.23a1,1,0,0,1,1.41,0,1,1,0,0,1,0,1.42L4.58,15.18a3,3,0,0,0,4.24,4.24l3.53-3.53a1,1,0,0,1,1.42,0,1,1,0,0,1,0,1.41l-3.54,3.54A5,5,0,0,1,6.7,22.3Z"/><path d="M16.6,14.06a1,1,0,0,1-.71-1.71l3.53-3.53a3,3,0,0,0-4.24-4.24L11.65,8.11a1,1,0,0,1-1.42,0,1,1,0,0,1,0-1.41l3.54-3.54a5,5,0,0,1,7.07,7.07L17.3,13.77A1,1,0,0,1,16.6,14.06Z"/><path d="M8,5A1,1,0,0,1,7,4V2A1,1,0,0,1,9,2V4A1,1,0,0,1,8,5Z"/><path d="M4,9H2A1,1,0,0,1,2,7H4A1,1,0,0,1,4,9Z"/><path d="M5,6a1,1,0,0,1-.71-.29l-2-2A1,1,0,0,1,3.71,2.29l2,2a1,1,0,0,1,0,1.42A1,1,0,0,1,5,6Z"/><path d="M22,17H20a1,1,0,0,1,0-2h2a1,1,0,0,1,0,2Z"/><path d="M16,23a1,1,0,0,1-1-1V20a1,1,0,0,1,2,0v2A1,1,0,0,1,16,23Z"/><path d="M21,22a1,1,0,0,1-.71-.29l-2-2a1,1,0,0,1,1.42-1.42l2,2a1,1,0,0,1,0,1.42A1,1,0,0,1,21,22Z"/></svg>