<svg id="interface_essential_by_mad-lab_studio" data-name="interface essential by mad-lab studio" xmlns="http://www.w3.org/2000/svg" viewBox="0 0 24 24"><title>Unlink alt 2</title><path d="M6.7,23.13a3,3,0,0,1-2.12-.88L1.75,19.42a3,3,0,0,1,0-4.24l5-4.95a1,1,0,0,1,1.41,0,1,1,0,0,1,0,1.42l-4.95,5a1,1,0,0,0,0,1.41L6,20.84a1,1,0,0,0,1.41,0l4.95-4.95a1,1,0,0,1,1.42,0,1,1,0,0,1,0,1.41L8.82,22.25A3,3,0,0,1,6.7,23.13Z"/><path d="M16.6,14.06a1,1,0,0,1-.71-1.71L20.84,7.4a1,1,0,0,0,0-1.41L18,3.16a1,1,0,0,0-1.41,0l-5,4.95a1,1,0,0,1-1.42,0,1,1,0,0,1,0-1.41l4.95-4.95a3,3,0,0,1,4.24,0l2.83,2.83a3,3,0,0,1,0,4.24L17.3,13.77A1,1,0,0,1,16.6,14.06Z"/><path d="M8,5A1,1,0,0,1,7,4V2A1,1,0,0,1,9,2V4A1,1,0,0,1,8,5Z"/><path d="M4,9H2A1,1,0,0,1,2,7H4A1,1,0,0,1,4,9Z"/><path d="M5,6a1,1,0,0,1-.71-.29l-2-2A1,1,0,0,1,3.71,2.29l2,2a1,1,0,0,1,0,1.42A1,1,0,0,1,5,6Z"/><path d="M22,17H20a1,1,0,0,1,0-2h2a1,1,0,0,1,0,2Z"/><path d="M16,23a1,1,0,0,1-1-1V20a1,1,0,0,1,2,0v2A1,1,0,0,1,16,23Z"/><path d="M21,22a1,1,0,0,1-.71-.29l-2-2a1,1,0,0,1,1.42-1.42l2,2a1,1,0,0,1,0,1.42A1,1,0,0,1,21,22Z"/></svg>