<svg id="interface_essential_by_mad-lab_studio" data-name="interface essential by mad-lab studio" xmlns="http://www.w3.org/2000/svg" viewBox="0 0 24 24"><title>View alt 2</title><path d="M12,23H3a3,3,0,0,1-3-3V3A3,3,0,0,1,3,0H20a3,3,0,0,1,3,3v9a1,1,0,0,1-2,0V3a1,1,0,0,0-1-1H3A1,1,0,0,0,2,3V20a1,1,0,0,0,1,1h9a1,1,0,0,1,0,2Z"/><path d="M16.5,22A5.5,5.5,0,1,1,22,16.5,5.51,5.51,0,0,1,16.5,22Zm0-9A3.5,3.5,0,1,0,20,16.5,3.5,3.5,0,0,0,16.5,13Z"/><path d="M23,24a1,1,0,0,1-.71-.29l-3-3a1,1,0,0,1,1.42-1.42l3,3a1,1,0,0,1,0,1.42A1,1,0,0,1,23,24Z"/></svg>