<svg id="interface_essential_by_mad-lab_studio" data-name="interface essential by mad-lab studio" xmlns="http://www.w3.org/2000/svg" viewBox="0 0 24 24"><title>View alt 3</title><path d="M21,22H3a3,3,0,0,1-3-3V5A3,3,0,0,1,3,2H21a3,3,0,0,1,3,3V19A3,3,0,0,1,21,22ZM3,4A1,1,0,0,0,2,5V19a1,1,0,0,0,1,1H21a1,1,0,0,0,1-1V5a1,1,0,0,0-1-1Z"/><path d="M22,8H2A1,1,0,0,1,2,6H22a1,1,0,0,1,0,2Z"/><path d="M12,19a8.9,8.9,0,0,1-7.89-4.55,1,1,0,0,1,0-.9A8.9,8.9,0,0,1,12,9a8.9,8.9,0,0,1,7.89,4.55,1,1,0,0,1,0,.9A8.9,8.9,0,0,1,12,19ZM6.17,14A6.93,6.93,0,0,0,12,17a7,7,0,0,0,5.83-3A7,7,0,0,0,12,11,7,7,0,0,0,6.17,14Z"/><path d="M12,18a4,4,0,1,1,4-4A4,4,0,0,1,12,18Zm0-6a2,2,0,1,0,2,2A2,2,0,0,0,12,12Z"/></svg>