<svg id="interface_essential_by_mad-lab_studio" data-name="interface essential by mad-lab studio" xmlns="http://www.w3.org/2000/svg" viewBox="0 0 24 24"><title>View alt 1</title><path d="M12,19C2.67,19,.17,12.62.06,12.35a1.05,1.05,0,0,1,0-.7C.17,11.38,2.67,5,12,5s11.83,6.38,11.94,6.65a1.05,1.05,0,0,1,0,.7C23.83,12.62,21.33,19,12,19ZM2.1,12c.62,1.2,3.12,5,9.9,5s9.28-3.79,9.9-5c-.62-1.21-3.12-5-9.9-5S2.72,10.79,2.1,12Z"/><path d="M12,19a7,7,0,1,1,7-7A7,7,0,0,1,12,19ZM12,7a5,5,0,1,0,5,5A5,5,0,0,0,12,7Z"/></svg>