<svg id="interface_essential_by_mad-lab_studio" data-name="interface essential by mad-lab studio" xmlns="http://www.w3.org/2000/svg" viewBox="0 0 24 24"><title>Wifi signal alt 1</title><path d="M12,24a1,1,0,0,1-1-1V14a1,1,0,0,1,2,0v9A1,1,0,0,1,12,24Z"/><path d="M12,15a3,3,0,1,1,3-3A3,3,0,0,1,12,15Zm0-4a1,1,0,1,0,1,1A1,1,0,0,0,12,11Z"/><path d="M15.54,16.54a1,1,0,0,1-.71-.3,1,1,0,0,1,0-1.41,4,4,0,0,0,0-5.66,1,1,0,0,1,1.41-1.41,6,6,0,0,1,0,8.48A1,1,0,0,1,15.54,16.54Z"/><path d="M8.46,16.54a1,1,0,0,1-.7-.3,6,6,0,0,1,0-8.48A1,1,0,0,1,9.17,9.17a4,4,0,0,0,0,5.66,1,1,0,0,1,0,1.41A1,1,0,0,1,8.46,16.54Z"/><path d="M17.66,18.66A1,1,0,0,1,17,17a7,7,0,0,0,0-9.9,1,1,0,0,1,1.41-1.41,9,9,0,0,1,0,12.72A1,1,0,0,1,17.66,18.66Z"/><path d="M6.34,18.66a1,1,0,0,1-.7-.3,9,9,0,0,1,0-12.72A1,1,0,0,1,7.05,7.05a7,7,0,0,0,0,9.9,1,1,0,0,1-.71,1.71Z"/><path d="M19.78,20.78a1,1,0,0,1-.71-.29,1,1,0,0,1,0-1.42,10,10,0,0,0,0-14.14,1,1,0,0,1,1.42-1.42,12,12,0,0,1,0,17A1,1,0,0,1,19.78,20.78Z"/><path d="M4.22,20.78a1,1,0,0,1-.71-.29,12,12,0,0,1,0-17A1,1,0,0,1,4.93,4.93a10,10,0,0,0,0,14.14,1,1,0,0,1,0,1.42A1,1,0,0,1,4.22,20.78Z"/></svg>