<svg id="interface_essential_by_mad-lab_studio" data-name="interface essential by mad-lab studio" xmlns="http://www.w3.org/2000/svg" viewBox="0 0 24 24"><title>Wifi signal alt 2</title><path d="M12,19.5a3,3,0,1,1,3-3A3,3,0,0,1,12,19.5Zm0-4a1,1,0,1,0,1,1A1,1,0,0,0,12,15.5Z"/><path d="M17,17.5a1,1,0,0,1-1-1,4,4,0,0,0-8,0,1,1,0,0,1-2,0,6,6,0,0,1,12,0A1,1,0,0,1,17,17.5Z"/><path d="M20,17.5a1,1,0,0,1-1-1,7,7,0,0,0-14,0,1,1,0,0,1-2,0,9,9,0,0,1,18,0A1,1,0,0,1,20,17.5Z"/><path d="M23,17.5a1,1,0,0,1-1-1,10,10,0,0,0-20,0,1,1,0,0,1-2,0,12,12,0,0,1,24,0A1,1,0,0,1,23,17.5Z"/></svg>